<?xml version="1.0" encoding="UTF-8" standalone="no"?>
<!-- Generator: Adobe Illustrator 16.0.0, SVG Export Plug-In . SVG Version: 6.00 Build 0)  -->

<svg
   xmlns:dc="http://purl.org/dc/elements/1.1/"
   xmlns:cc="http://creativecommons.org/ns#"
   xmlns:rdf="http://www.w3.org/1999/02/22-rdf-syntax-ns#"
   xmlns:svg="http://www.w3.org/2000/svg"
   xmlns="http://www.w3.org/2000/svg"
   xmlns:sodipodi="http://sodipodi.sourceforge.net/DTD/sodipodi-0.dtd"
   xmlns:inkscape="http://www.inkscape.org/namespaces/inkscape"
   version="1.1"
   id="Layer_1"
   x="0px"
   y="0px"
   width="1024px"
   height="748px"
   viewBox="0 0 1024 748"
   enable-background="new 0 0 1024 748"
   xml:space="preserve"
   inkscape:version="0.48.2 r9819"
   sodipodi:docname="jumbly_launch_ipad_landscape.svg"><metadata
   id="metadata10163"><rdf:RDF><cc:Work
       rdf:about=""><dc:format>image/svg+xml</dc:format><dc:type
         rdf:resource="http://purl.org/dc/dcmitype/StillImage" /></cc:Work></rdf:RDF></metadata><defs
   id="defs10161" /><sodipodi:namedview
   pagecolor="#ffffff"
   bordercolor="#666666"
   borderopacity="1"
   objecttolerance="10"
   gridtolerance="10"
   guidetolerance="10"
   inkscape:pageopacity="0"
   inkscape:pageshadow="2"
   inkscape:window-width="1042"
   inkscape:window-height="636"
   id="namedview10159"
   showgrid="false"
   inkscape:zoom="0.31550802"
   inkscape:cx="512"
   inkscape:cy="352.22847"
   inkscape:window-x="0"
   inkscape:window-y="0"
   inkscape:window-maximized="0"
   inkscape:current-layer="Layer_1" />
<rect
   stroke-miterlimit="10"
   width="1024"
   height="748"
   id="rect10142"
   stroke="#000000"
   fill="#A97C50" />
<g
   id="Layer_1_1_"
   transform="matrix(0.72369477,0,0,0.72369477,-85.734944,22.707804)">
	<g
   id="g10145"
   style="opacity:0.8">
		<path
   d="m 245.762,426.831 c -2.081,12.279 -8.068,22.93 -17.95,31.941 -10.772,9.638 -22.103,13.459 -34.005,11.44 -13.601,-2.309 -24.366,-12.205 -32.288,-29.668 -1.412,-3.156 -1.824,-6.44 -1.248,-9.838 0.769,-4.534 3.123,-8.119 7.068,-10.752 3.945,-2.637 8.184,-3.567 12.723,-2.801 3.398,0.577 6.65,4.337 9.75,11.271 2.565,5.487 6.021,8.601 10.37,9.336 6.607,1.13 10.938,-4.363 12.994,-16.451 L 232.39,307.951 c 0.798,-4.721 3.017,-8.329 6.643,-10.829 3.633,-2.491 7.806,-3.339 12.534,-2.539 4.905,0.832 8.568,3.007 10.989,6.526 2.415,3.521 3.204,7.738 2.374,12.651 l -19.168,113.071 z m 45.924,-151.028 c -0.868,5.099 -3.396,9.144 -7.591,12.125 -4.202,2.981 -8.848,4.041 -13.953,3.178 -5.099,-0.864 -9.143,-3.4 -12.124,-7.599 -2.982,-4.192 -4.038,-8.848 -3.172,-13.946 0.863,-5.098 3.384,-9.091 7.572,-11.98 4.178,-2.886 8.825,-3.896 13.919,-3.036 5.106,0.866 9.144,3.399 12.125,7.6 2.981,4.19 4.061,8.751 3.224,13.658 z"
   id="path10147"
   inkscape:connector-curvature="0"
   style="fill:#ffffff" />
		<path
   d="m 389.68,455.33 c 0,4.604 -1.631,8.625 -4.89,12.074 -3.259,3.45 -7.185,5.175 -11.782,5.175 -7.093,0 -14.854,-5.843 -23.281,-17.534 -12.264,9.777 -25.108,14.659 -38.515,14.659 -21.083,0 -35.261,-11.884 -42.54,-35.639 -1.729,-5.558 -2.589,-11.886 -2.589,-18.974 0,-18.971 5.464,-41.578 16.381,-67.832 2.877,-6.901 7.761,-10.354 14.662,-10.354 4.598,0 8.619,1.54 12.069,4.603 3.446,3.073 5.173,6.898 5.173,11.5 0,2.298 -0.481,4.601 -1.434,6.898 -9.197,22.23 -13.798,40.626 -13.798,55.185 0,3.646 0.381,6.712 1.147,9.198 2.684,8.814 7.186,13.22 13.508,13.22 7.281,0 15.137,-5.076 23.571,-15.227 -0.387,-3.263 -0.572,-6.712 -0.572,-10.355 0,-14.178 4.121,-35.163 12.357,-62.949 2.299,-7.854 7.376,-11.784 15.234,-11.784 4.787,0 8.859,1.485 12.215,4.454 3.35,2.972 5.031,6.85 5.031,11.642 0,1.725 -0.294,3.548 -0.865,5.458 -7.477,24.34 -11.208,41.486 -11.208,51.454 0,14.371 4.601,25.203 13.796,32.482 4.218,3.451 6.33,7.666 6.33,12.646 z"
   id="path10149"
   inkscape:connector-curvature="0"
   style="fill:#ffffff" />
		<path
   d="m 567.388,412.843 c 0.435,4.766 -0.746,8.865 -3.512,12.294 -2.766,3.417 -6.634,5.356 -11.599,5.805 -4.768,0.425 -8.819,-0.793 -12.16,-3.666 -3.341,-2.88 -5.222,-6.697 -5.658,-11.47 l -7.122,-79.009 c -0.729,-8.018 -4.718,-11.695 -11.971,-11.039 -5.532,0.495 -10.118,5.147 -13.743,13.935 -2.991,7.393 -4.2,14.23 -3.633,20.527 l 4.649,51.526 c 0.432,4.772 -0.741,8.87 -3.51,12.296 -2.769,3.425 -6.636,5.361 -11.593,5.815 -4.771,0.428 -8.829,-0.797 -12.168,-3.669 -3.339,-2.875 -5.222,-6.687 -5.651,-11.468 l -5.067,-56.106 c -0.412,-4.578 -2.965,-8.864 -7.656,-12.869 -4.691,-3.996 -9.294,-5.512 -13.828,-4.522 -3.025,0.661 -5.819,2.69 -8.398,6.093 -2.58,3.41 -3.73,6.643 -3.454,9.694 l 6.204,68.705 c 0.425,4.778 -0.742,8.869 -3.511,12.301 -2.771,3.419 -6.635,5.355 -11.596,5.805 -4.771,0.433 -8.826,-0.785 -12.163,-3.658 -3.336,-2.879 -5.22,-6.704 -5.654,-11.473 l -9.356,-103.631 c -0.435,-4.771 0.743,-8.819 3.521,-12.15 2.776,-3.327 6.553,-5.212 11.326,-5.64 1.906,-0.173 7.259,2.621 16.045,8.366 6.301,-4.795 11.549,-7.391 15.752,-7.772 12.972,-1.171 25.443,3.668 37.388,14.518 9.771,-17.432 22.586,-26.852 38.428,-28.285 12.208,-1.099 22.233,2.318 30.075,10.273 7.208,7.427 11.401,17.635 12.573,30.61 l 7.042,77.864 z"
   id="path10151"
   inkscape:connector-curvature="0"
   style="fill:#ffffff" />
		<path
   d="m 693.213,407.576 c 0,20.31 -5.27,36.698 -15.809,49.148 -11.311,13.216 -26.83,19.834 -46.569,19.834 -11.309,0 -21.078,-2.399 -29.312,-7.183 -7.477,8.432 -13.901,12.646 -19.267,12.646 -4.407,0 -8.096,-1.289 -11.065,-3.881 -2.976,-2.592 -4.455,-5.982 -4.455,-10.204 0,-6.512 3.739,-13.791 11.215,-21.84 v -144.3 c 0,-4.789 1.532,-8.715 4.596,-11.786 3.062,-3.065 6.992,-4.603 11.78,-4.603 4.79,0 8.771,1.538 11.931,4.603 3.164,3.066 4.748,6.993 4.748,11.786 v 55.184 c 13.02,-10.151 26.343,-15.231 39.953,-15.231 28.169,0.002 42.254,21.944 42.254,65.827 z m -33.057,0 c 0,-7.479 -1.249,-13.991 -3.732,-19.548 -3.271,-7.474 -8.154,-11.208 -14.667,-11.208 -8.816,0 -17.538,6.422 -26.153,19.256 -1.538,2.299 -3.068,4.307 -4.599,6.036 v 39.377 c 6.701,1.147 12.447,1.733 17.24,1.733 21.276,-0.012 31.911,-11.891 31.911,-35.646 z"
   id="path10153"
   inkscape:connector-curvature="0"
   style="fill:#ffffff" />
		<path
   d="m 754.431,447.657 c 0,4.216 -1.435,7.71 -4.309,10.495 -2.875,2.771 -6.422,4.167 -10.638,4.167 -2.683,0 -5.271,-0.578 -7.761,-1.725 -10.348,-4.602 -16.093,-7.289 -17.249,-8.061 -7.465,-4.591 -11.203,-9.765 -11.203,-15.509 l 0.287,-165.279 c 0,-4.785 1.532,-8.714 4.599,-11.782 3.068,-3.067 6.991,-4.603 11.792,-4.603 4.78,0 8.762,1.536 11.918,4.603 3.167,3.062 4.751,6.992 4.751,11.782 l -0.29,154.642 c 12.067,5.379 18.103,12.459 18.103,21.27 z"
   id="path10155"
   inkscape:connector-curvature="0"
   style="fill:#ffffff" />
		<path
   d="m 864.518,308.879 c 0,0.571 -0.188,1.819 -0.572,3.738 -5.565,27.594 -15.522,59.787 -29.896,96.574 -11.12,28.169 -22.513,53.758 -34.2,76.748 -3.065,6.133 -7.768,9.2 -14.083,9.2 -4.602,0 -8.624,-1.536 -12.072,-4.604 -3.45,-3.068 -5.177,-6.898 -5.177,-11.49 0,-2.691 0.671,-5.369 2.018,-8.047 9.192,-17.829 18.292,-37.849 27.308,-60.076 -16.099,-11.881 -27.599,-22.514 -34.497,-31.91 -8.434,-11.111 -14.938,-26.051 -19.544,-44.838 -0.384,-1.533 -0.568,-3.063 -0.568,-4.602 0,-4.783 1.677,-8.665 5.03,-11.638 3.351,-2.973 7.42,-4.453 12.213,-4.453 8.237,0 13.411,4.213 15.526,12.646 3.061,12.842 6.898,22.757 11.487,29.75 4.607,6.998 12.174,14.613 22.713,22.852 10.353,-27.979 17.535,-52.119 21.56,-72.435 1.721,-9.006 6.991,-13.51 15.81,-13.51 4.593,0 8.572,1.539 11.926,4.6 3.339,3.064 5.018,6.893 5.018,11.495 z"
   id="path10157"
   inkscape:connector-curvature="0"
   style="fill:#ffffff" />
	</g>
</g>
<g
   id="g10897"
   transform="translate(1251.2712,-45.77966)"><g
     display="none"
     id="Legs"
     style="display:none"><path
       id="path10556"
       d="m 391.013,619.886 c 37.584,-3.384 71.585,32.057 75.943,79.16 4.359,47.103 -24.178,38.472 -61.763,41.856 -37.584,3.383 -69.983,17.5 -74.341,-29.603 -4.359,-47.102 22.576,-88.03 60.161,-91.413 z"
       inkscape:connector-curvature="0"
       style="fill:#957b4b" /><g
       id="g10558"><path
         id="path10560"
         d="m 286.215,655.169 c 24.681,1.981 42.57,30.505 39.957,63.71 -2.614,33.205 -20.063,23.925 -44.744,21.944 -24.682,-1.982 -47.25,4.086 -44.636,-29.119 2.614,-33.204 24.742,-58.516 49.423,-56.535 z"
         inkscape:connector-curvature="0"
         style="fill:#957b4b" /><path
         id="path10562"
         d="m 286.215,655.169 c 24.681,1.981 42.57,30.505 39.957,63.71 -2.614,33.205 -20.063,23.925 -44.744,21.944 -24.682,-1.982 -47.25,4.086 -44.636,-29.119 2.614,-33.204 24.742,-58.516 49.423,-56.535 z"
         inkscape:connector-curvature="0"
         style="fill-opacity:0;stroke:#54382a;stroke-width:2.2249999" /></g><path
       id="path10564"
       d="m 356.671,745.114 c -7.766,-0.773 -14.836,-4.264 -19.173,-10.939 -4.413,-6.79 -5.826,-14.977 -6.646,-22.876 -4.359,-47.102 22.576,-88.03 60.16,-91.413 5.772,-0.51 11.6,-0.118 17.256,1.154 30.787,6.924 51.881,37.487 57.073,67.207 -6.92,-1.64 -14.006,-1.775 -21.07,-1.931 -6.736,0.11 -13.455,0.843 -20.059,2.168 -24.403,4.897 -49.578,18.375 -61.933,40.84 -2.682,4.876 -2.84,6.039 -4.64,11.241 z"
       inkscape:connector-curvature="0"
       style="fill:#7a513d" /><path
       id="path10566"
       d="m 391.513,620.386 c 37.584,-3.384 71.585,32.057 75.943,79.16 4.359,47.103 -24.178,38.472 -61.763,41.856 -37.584,3.383 -69.983,17.5 -74.341,-29.603 -4.359,-47.102 22.576,-88.03 60.161,-91.413 z"
       inkscape:connector-curvature="0"
       style="fill-opacity:0;stroke:#54312a;stroke-width:3.27999997" /><path
       id="path10568"
       d="m 306.917,743.013 -5.197,-0.214 c 0.354,-3.511 0.259,-1.863 0.336,-4.941 0,-22.962 -18.502,-41.576 -41.326,-41.576 -8.449,-0.038 -16.501,2.67 -23.447,7.391 3.348,-21.301 18.257,-46.005 41.572,-48.858 3.21,-0.392 4.104,-0.273 6.86,-0.146 24.681,1.981 42.571,30.505 39.957,63.71 -0.799,7.268 -1.585,16.142 -7.646,21.204 -2.372,1.982 -5.001,2.608 -7.941,3.21 z"
       inkscape:connector-curvature="0"
       style="fill:#7a513d" /><path
       id="path10570"
       d="m 286.215,655.169 c 24.681,1.981 42.57,30.505 39.957,63.71 -2.614,33.205 -20.063,23.925 -44.744,21.944 -24.682,-1.982 -47.25,4.086 -44.636,-29.119 2.614,-33.204 24.742,-58.516 49.423,-56.535 z"
       inkscape:connector-curvature="0"
       style="fill-opacity:0;stroke:#54382a;stroke-width:2.2249999" /></g><g
     id="g11078"
     transform="matrix(1.5973948,0,0,1.5973948,-1012.1673,-323.03652)"><g
       id="Legs Copy"><path
         style="fill:#957b4b"
         inkscape:connector-curvature="0"
         d="m 391.013,619.886 c 37.584,-3.384 71.585,32.057 75.943,79.16 4.359,47.103 -24.178,38.472 -61.763,41.856 -37.584,3.383 -69.983,17.5 -74.341,-29.603 -4.359,-47.102 22.576,-88.03 60.161,-91.413 z"
         id="path10573" /><g
         id="g10575"><path
           style="fill:#957b4b"
           inkscape:connector-curvature="0"
           d="m 286.215,655.169 c 24.681,1.981 42.57,30.505 39.957,63.71 -2.614,33.205 -20.063,23.925 -44.744,21.944 -24.682,-1.982 -47.25,4.086 -44.636,-29.119 2.614,-33.204 24.742,-58.516 49.423,-56.535 z"
           id="path10577" /><path
           style="fill-opacity:0;stroke:#54382a;stroke-width:2.2249999"
           inkscape:connector-curvature="0"
           d="m 286.215,655.169 c 24.681,1.981 42.57,30.505 39.957,63.71 -2.614,33.205 -20.063,23.925 -44.744,21.944 -24.682,-1.982 -47.25,4.086 -44.636,-29.119 2.614,-33.204 24.742,-58.516 49.423,-56.535 z"
           id="path10579" /></g><path
         style="fill:#7a513d"
         inkscape:connector-curvature="0"
         d="m 312.033,742.394 0.042,-1.029 c 0,-21.855 -14.242,-39.573 -31.809,-39.573 -13.316,0.183 -24.272,10.288 -28.672,22.416 -2.195,6.051 -1.816,6.056 -2.972,13.111 l -0.007,0.177 c -11.984,-3.773 -12.944,-15.45 -12.323,-26.291 2.614,-33.205 24.741,-58.517 49.423,-56.536 24.681,1.982 42.57,30.505 39.957,63.71 -0.8,7.268 -1.586,16.142 -7.646,21.204 -1.907,1.593 -2.756,1.718 -5.026,2.613 z"
         id="path10581" /><path
         style="fill:#7a513d"
         inkscape:connector-curvature="0"
         d="m 357.167,745.186 c -7.95,-0.76 -15.212,-4.153 -19.669,-11.011 -4.413,-6.79 -5.826,-14.977 -6.646,-22.876 -4.359,-47.102 22.576,-88.03 60.161,-91.413 37.584,-3.384 71.585,32.057 75.943,79.16 1.215,14.165 0.959,31.29 -14.792,37.103 -3.975,-16.183 -19.243,-27.185 -34.9,-30.575 -3.975,-0.861 -7.964,-1.191 -12.018,-1.278 -26.559,0 -48.089,18.166 -48.089,40.575 z"
         id="path10583" /><path
         style="fill-opacity:0;stroke:#54312a;stroke-width:3.27999997"
         inkscape:connector-curvature="0"
         d="m 391.513,620.386 c 37.584,-3.384 71.585,32.057 75.943,79.16 4.359,47.103 -24.178,38.472 -61.763,41.856 -37.584,3.383 -69.983,17.5 -74.341,-29.603 -4.359,-47.102 22.576,-88.03 60.161,-91.413 z"
         id="path10585" /><path
         style="fill-opacity:0;stroke:#54382a;stroke-width:2.2249999"
         inkscape:connector-curvature="0"
         d="m 285.129,655.169 c 24.681,1.981 42.57,30.505 39.957,63.71 -2.614,33.205 -20.063,23.925 -44.744,21.944 -24.682,-1.982 -47.25,4.086 -44.636,-29.119 2.614,-33.204 24.742,-58.516 49.423,-56.535 z"
         id="path10587" /></g><g
       id="Tail"><path
         style="fill:#ffded6"
         inkscape:connector-curvature="0"
         d="m 466.398,632.961 c -1.499,-0.258 -3.03,-0.376 -4.499,-0.773 -8.326,-2.248 -13.793,-7.851 -18.463,-14.79 -0.875,-1.407 -0.445,-3.257 0.962,-4.132 1.407,-0.876 3.257,-0.445 4.132,0.962 1.612,2.402 2.151,3.371 4.466,5.742 5.323,5.453 13.079,8.499 20.603,6.264 3.382,-1.004 6.42,-2.994 8.775,-5.61 0.828,-0.92 1.491,-1.977 2.236,-2.965 -4.958,-2.047 -8.918,-5.785 -12.294,-9.84 -5.662,-7.56 -5.695,-15.772 1.663,-21.658 4.015,-3.212 9.018,-2.589 13.373,0.681 3.59,2.697 6.374,6.956 6.839,10.677 0.64,5.416 0.46,10.993 -1.328,16.183 0.617,-0.091 1.248,-0.108 1.849,-0.272 5.807,-1.586 10.781,-7.623 13.2,-12.878 -4.577,-0.997 -7.495,-4.209 -9.915,-8 -1.72,-3.01 -1.854,-8.006 -0.454,-11.776 1.884,-5.071 6.371,-7.267 11.429,-4.233 4.717,2.868 7.227,7.676 7.523,13.119 0.054,0.988 -0.086,1.978 -0.129,2.967 1.85,-1.451 1.023,-0.714 2.512,-2.181 2.433,-2.565 4.032,-5.718 4.247,-8.266 0.193,-2.291 -0.679,-3.717 -2.99,-4.487 -1.572,-0.524 -2.421,-2.223 -1.897,-3.795 0.523,-1.572 2.223,-2.421 3.794,-1.897 9.835,3.278 8.894,14.461 1.199,22.574 -2.429,2.372 -5.261,4.868 -8.685,5.612 -0.646,1.852 -0.234,0.783 -1.324,3.172 -4.983,10.116 -14.024,17.327 -22.38,16.282 l -0.507,-0.083 c -3.123,5.959 -8.691,10.564 -15.161,12.476 -1.408,0.416 -2.881,0.575 -4.321,0.862 z m 43.05,-38.235 0.514,0.015 c 0.11,-0.488 0.267,-0.968 0.331,-1.465 0.419,-3.254 0.23,-6.629 -1.859,-9.333 -0.977,-1.265 -1.426,-1.485 -2.549,-2.254 -1.515,-0.91 -2.038,-0.654 -2.717,1.176 -0.818,2.201 -0.733,5.36 0.038,6.711 0.831,1.316 1.172,1.991 2.455,3.179 0.55,0.51 1.222,0.868 1.833,1.302 z M 486,611.725 l 1.066,0.444 c 1.392,-3.611 1.502,-7.5 1.409,-11.318 -0.022,-0.866 -0.159,-1.725 -0.238,-2.588 -0.247,-1.979 -2.119,-4.844 -4.488,-6.623 -2.379,-1.786 -4.458,-2.045 -6.022,-0.794 -4.521,3.617 -4.503,8.177 -0.609,13.376 2.494,2.99 0.91,1.255 4.993,4.975 z"
         id="path10590" /></g><g
       id="Right arm"><g
         id="g10593"><path
           style="fill:#ffded6"
           inkscape:connector-curvature="0"
           d="m 162.12,513.535 c 8.282,-12.032 19.374,-17.078 46.004,1.252 7.095,5.126 3.319,2.228 11.229,8.819 2.375,0.017 2.527,-0.026 6.354,1.125 11.413,3.434 19.495,13.713 19.871,25.644 0.159,5.054 -0.591,6.426 -1.887,11.246 -0.365,0.753 0.122,-0.34 -0.115,1.65 -0.32,2.674 -1.131,5.568 -3.064,7.567 -1.566,1.619 -2.398,2.299 -4.431,3.321 -0.647,0.326 -1.398,0.423 -2.03,0.777 -0.395,0.221 -0.636,0.647 -0.998,0.919 -0.845,0.637 -1.742,1.201 -2.612,1.801 -14.541,9.038 -33.183,5.339 -41.638,-8.263 -2.021,-3.68 -1.099,-1.67 -2.664,-6.076 -4.738,-2.655 -2.039,-1.052 -8.005,-4.96 -26.629,-18.33 -24.295,-32.791 -16.014,-44.822 z"
           id="path10595" /><path
           style="fill-opacity:0;stroke:#736160;stroke-width:2.5"
           inkscape:connector-curvature="0"
           d="m 162.12,513.535 c 8.282,-12.032 19.374,-17.078 46.004,1.252 7.095,5.126 3.319,2.228 11.229,8.819 2.375,0.017 2.527,-0.026 6.354,1.125 11.413,3.434 19.495,13.713 19.871,25.644 0.159,5.054 -0.591,6.426 -1.887,11.246 -0.365,0.753 0.122,-0.34 -0.115,1.65 -0.32,2.674 -1.131,5.568 -3.064,7.567 -1.566,1.619 -2.398,2.299 -4.431,3.321 -0.647,0.326 -1.398,0.423 -2.03,0.777 -0.395,0.221 -0.636,0.647 -0.998,0.919 -0.845,0.637 -1.742,1.201 -2.612,1.801 -14.541,9.038 -33.183,5.339 -41.638,-8.263 -2.021,-3.68 -1.099,-1.67 -2.664,-6.076 -4.738,-2.655 -2.039,-1.052 -8.005,-4.96 -26.629,-18.33 -24.295,-32.791 -16.014,-44.822 z"
           id="path10597" /></g><path
         style="fill:#ffbe92"
         inkscape:connector-curvature="0"
         d="m 188.302,568.892 c -2.021,-3.68 -1.098,-1.67 -2.663,-6.075 -4.738,-2.656 -2.039,-1.053 -8.005,-4.961 -5.307,-3.694 -10.465,-7.737 -14.597,-12.748 2.42,-3.708 5.379,-7.033 8.732,-9.923 16.473,-14.201 41.138,-16.315 59.93,-5.49 2.378,1.369 7.86,4.986 9.551,7.205 2.528,3.318 3.535,8.906 3.828,12.975 0.159,5.053 -0.591,6.425 -1.887,11.245 -0.365,0.753 0.122,-0.34 -0.115,1.65 -0.32,2.674 -1.131,5.569 -3.064,7.567 -1.566,1.619 -2.398,2.3 -4.431,3.322 -0.647,0.325 -1.398,0.422 -2.03,0.776 -0.395,0.221 -0.637,0.647 -0.998,0.919 -0.845,0.637 -1.742,1.201 -2.613,1.801 -14.54,9.039 -33.182,5.339 -41.638,-8.263 z"
         id="path10599" /><path
         style="fill-opacity:0;stroke:#736160;stroke-width:2.5"
         inkscape:connector-curvature="0"
         d="m 162.12,513.535 c 8.282,-12.032 19.374,-17.078 46.004,1.252 7.095,5.126 3.319,2.228 11.229,8.819 2.375,0.017 2.527,-0.026 6.354,1.125 11.413,3.434 19.495,13.713 19.871,25.644 0.159,5.054 -0.591,6.426 -1.887,11.246 -0.365,0.753 0.122,-0.34 -0.115,1.65 -0.32,2.674 -1.131,5.568 -3.064,7.567 -1.566,1.619 -2.398,2.299 -4.431,3.321 -0.647,0.326 -1.398,0.423 -2.03,0.777 -0.395,0.221 -0.636,0.647 -0.998,0.919 -0.845,0.637 -1.742,1.201 -2.612,1.801 -14.541,9.038 -33.183,5.339 -41.638,-8.263 -2.021,-3.68 -1.099,-1.67 -2.664,-6.076 -4.738,-2.655 -2.039,-1.052 -8.005,-4.96 -26.629,-18.33 -24.295,-32.791 -16.014,-44.822 z"
         id="path10601" /><g
         id="g10603"><path
           style="fill:#373737"
           inkscape:connector-curvature="0"
           d="m 130.423,527.159 c 0.145,-1.456 0.028,-1.027 0.716,-2.836 2.001,-5.264 24.373,-6.884 26.901,-11.901 4.522,-8.974 -10.511,-21.337 -5.747,-30.184 12.569,5.392 24.742,11.8 35.997,19.585 3.652,8.432 4.611,18.639 0.209,26.953 -1.864,3.519 -5.616,6.98 -8.67,9.408 -5.567,4.426 -12.238,8.02 -19.216,9.537 -10.325,-6.332 -20.209,-13.342 -30.021,-20.43 z"
           id="path10605" /><path
           style="fill-opacity:0;stroke:#000000;stroke-width:2.5"
           inkscape:connector-curvature="0"
           d="m 130.423,527.159 c 0.145,-1.456 0.028,-1.027 0.716,-2.836 2.001,-5.264 24.373,-6.884 26.901,-11.901 4.522,-8.974 -10.511,-21.337 -5.747,-30.184 12.569,5.392 24.742,11.8 35.997,19.585 3.652,8.432 4.611,18.639 0.209,26.953 -1.864,3.519 -5.616,6.98 -8.67,9.408 -5.567,4.426 -12.238,8.02 -19.216,9.537 -10.325,-6.332 -20.209,-13.342 -30.021,-20.43 z"
           id="path10607" /></g></g><g
       id="Body"><g
         id="g10610"><path
           style="fill:#ffded6"
           inkscape:connector-curvature="0"
           d="m 321.386,702.217 c -63.488,0 -96.618,-51.245 -96.618,-117.07 0,-65.825 51.466,-119.186 114.954,-119.186 63.488,0 124.828,60.414 124.828,126.238 0,65.825 -79.676,110.018 -143.164,110.018 z"
           id="path10612" /><path
           style="fill-opacity:0;stroke:#736160;stroke-width:2.5"
           inkscape:connector-curvature="0"
           d="m 321.386,702.217 c -63.488,0 -96.618,-51.245 -96.618,-117.07 0,-65.825 51.466,-119.186 114.954,-119.186 63.488,0 124.828,60.414 124.828,126.238 0,65.825 -79.676,110.018 -143.164,110.018 z"
           id="path10614" /></g><path
         style="fill:#ffe7ed"
         inkscape:connector-curvature="0"
         d="m 320.886,701.717 c -30.567,-0.029 -57.391,-12.319 -75.065,-37.891 -13.794,-19.959 -19.577,-44.004 -21.123,-67.904 l 0.219,-0.284 c 6.183,-6.233 7.01,-7.544 14.234,-12.834 15.514,-11.364 33.827,-18.733 52.323,-23.608 22.101,-5.825 46.13,-8.527 68.997,-7.58 35.755,1.481 72.527,8.528 102.793,28.61 0.841,7.358 0.557,3.535 0.786,11.473 0,65.825 -79.676,110.018 -143.164,110.018 z"
         id="path10616" /><path
         style="fill:#ffbe92"
         inkscape:connector-curvature="0"
         d="m 329.739,551.215 c -19.393,0.049 -38.794,-5.147 -54.597,-16.677 -8.046,-5.87 -14.724,-13.116 -20.467,-21.214 -1.213,-1.709 -2.204,-3.564 -3.305,-5.346 27.686,-34.967 74.289,-50.538 117.229,-38.302 23.671,6.744 44.408,20.837 61.114,38.689 1.624,1.736 3.053,3.646 4.579,5.468 -1.345,1.116 -2.625,2.316 -4.036,3.347 -3.418,2.497 -6.865,4.961 -10.44,7.227 -18.092,11.472 -38.507,19.455 -59.497,23.657 -11.032,2.209 -13.463,2.095 -24.583,3.022 z"
         id="path10618" /><path
         style="fill-opacity:0;stroke:#736060;stroke-width:2.5"
         inkscape:connector-curvature="0"
         d="m 321.386,702.217 c -63.488,0 -96.618,-51.245 -96.618,-117.07 0,-65.825 51.466,-119.186 114.954,-119.186 63.488,0 124.828,60.414 124.828,126.238 0,65.825 -79.676,110.018 -143.164,110.018 z"
         id="path10620" /></g><g
       id="Pants"><g
         id="g10623"><path
           style="fill:#957b4b"
           inkscape:connector-curvature="0"
           d="m 321.386,702.218 c -22.876,0.063 -45.167,-7.173 -62.159,-22.914 -12.62,-11.692 -21.04,-26.785 -26.659,-42.892 -0.713,-2.045 -1.212,-4.159 -1.818,-6.238 33.432,9.743 68.82,12.496 103.48,9.664 25.152,-2.055 50.299,-7.204 73.764,-16.63 20.917,-8.402 43.066,-21.169 56.032,-40.199 6.174,53.813 -17.546,96.487 -63.652,112.862 -11.986,4.257 -48.155,3.648 -60.784,5.2 -4.053,0.498 -8.138,0.679 -12.207,1.018 z"
           id="path10625" /><path
           style="fill-opacity:0;stroke:#54382a;stroke-width:2.5"
           inkscape:connector-curvature="0"
           d="m 321.386,702.218 c -22.876,0.063 -45.167,-7.173 -62.159,-22.914 -12.62,-11.692 -21.04,-26.785 -26.659,-42.892 -0.713,-2.045 -1.212,-4.159 -1.818,-6.238 33.432,9.743 68.82,12.496 103.48,9.664 25.152,-2.055 50.299,-7.204 73.764,-16.63 20.917,-8.402 43.066,-21.169 56.032,-40.199 6.174,53.813 -17.546,96.487 -63.652,112.862 -11.986,4.257 -48.155,3.648 -60.784,5.2 -4.053,0.498 -8.138,0.679 -12.207,1.018 z"
           id="path10627" /></g><path
         style="fill:#7a513d"
         inkscape:connector-curvature="0"
         d="m 371.52,698.883 c 23.175,-11.335 44.069,-31.221 49.438,-57.334 1.121,-5.45 1.731,-11.632 1.17,-17.248 -0.257,-2.575 -0.702,-5.128 -1.054,-7.692 12.53,-6.208 24.549,-13.868 34.259,-24.044 4.363,-4.573 5.074,-5.758 8.193,-10.056 6.174,53.813 -17.546,96.486 -63.652,112.861 -8.265,2.537 -17.06,2.794 -25.622,3.382 z"
         id="path10629" /><path
         style="fill:#7a513d"
         inkscape:connector-curvature="0"
         d="m 283.912,694.766 -0.235,-0.084 c -9.533,-3.85 -17.277,-9.138 -24.95,-15.878 -12.62,-11.691 -21.04,-26.784 -26.659,-42.892 -0.713,-2.045 -1.212,-4.158 -1.818,-6.237 10.484,2.908 4.173,1.244 18.994,4.752 l 0.266,0.049 c -2.386,16.47 3.765,32.961 14.823,45.168 3.019,3.332 6.385,6.366 9.981,9.063 1.849,1.387 3.821,2.602 5.732,3.903 z"
         id="path10631" /><path
         style="fill-opacity:0;stroke:#54382a;stroke-width:2.5"
         inkscape:connector-curvature="0"
         d="m 321.386,702.218 c -22.876,0.063 -45.167,-7.173 -62.159,-22.914 -12.62,-11.692 -21.04,-26.785 -26.659,-42.892 -0.713,-2.045 -1.212,-4.159 -1.818,-6.238 33.432,9.743 68.82,12.496 103.48,9.664 25.152,-2.055 50.299,-7.204 73.764,-16.63 20.917,-8.402 43.066,-21.169 56.032,-40.199 6.174,53.813 -17.546,96.487 -63.652,112.862 -11.986,4.257 -48.155,3.648 -60.784,5.2 -4.053,0.498 -8.138,0.679 -12.207,1.018 z"
         id="path10633" /></g><g
       id="Tie"><g
         id="g10636"><path
           style="fill:#8080ff"
           inkscape:connector-curvature="0"
           d="m 319.958,550.953 c 0,0 -12.155,30.472 -19.229,52.134 -7.073,21.661 -19.795,54.291 -19.795,54.291 l 45.106,41.593 c 0,0 16.634,-15.922 22.557,-22.667 5.922,-6.746 16.789,-24.413 16.789,-24.413 0,0 -15.859,-26.532 -21.928,-43.806 -6.07,-17.274 -23.5,-57.132 -23.5,-57.132 z"
           id="path10638" /><path
           style="fill-opacity:0;stroke:#5252a5;stroke-width:2.5"
           inkscape:connector-curvature="0"
           d="m 319.958,550.953 c 0,0 -12.155,30.472 -19.229,52.134 -7.073,21.661 -19.795,54.291 -19.795,54.291 l 45.106,41.593 c 0,0 16.634,-15.922 22.557,-22.667 5.922,-6.746 16.789,-24.413 16.789,-24.413 0,0 -15.859,-26.532 -21.928,-43.806 -6.07,-17.274 -23.5,-57.132 -23.5,-57.132 z"
           id="path10640" /></g><path
         style="fill:#47478e"
         inkscape:connector-curvature="0"
         d="m 338.015,594.609 c -5.341,-4.381 -11.694,-7.583 -18.458,-9.075 -1.903,-0.419 -3.847,-0.637 -5.784,-0.85 -0.978,-0.107 -1.967,-0.072 -2.951,-0.108 -3.455,0.127 -1.978,-0.035 -4.447,0.328 4.181,-11.55 8.548,-23.034 13.082,-34.451 5.258,12.017 10.34,24.109 15.361,36.227 z"
         id="path10642" /><g
         id="g10644"><path
           style="fill:#8080ff"
           inkscape:connector-curvature="0"
           d="m 315.039,551.295 6.347,0 c 6.621,0 11.989,5.368 11.989,11.989 l 0,0 c 0,6.621 -5.368,11.989 -11.989,11.989 l -6.347,0 c -6.622,0 -11.99,-5.368 -11.99,-11.989 l 0,0 c 0,-6.621 5.368,-11.989 11.99,-11.989 z"
           id="path10646" /><path
           style="fill-opacity:0;stroke:#5252a5;stroke-width:2.5"
           inkscape:connector-curvature="0"
           d="m 315.039,551.295 6.347,0 c 6.621,0 11.989,5.368 11.989,11.989 l 0,0 c 0,6.621 -5.368,11.989 -11.989,11.989 l -6.347,0 c -6.622,0 -11.99,-5.368 -11.99,-11.989 l 0,0 c 0,-6.621 5.368,-11.989 11.99,-11.989 z"
           id="path10648" /></g><path
         style="fill:#47478e"
         inkscape:connector-curvature="0"
         d="m 320.062,567.046 c -5.558,-0.106 -13.198,-1.738 -16.072,-7.137 -0.26,-0.488 -0.354,-1.046 -0.531,-1.57 0.179,-0.423 0.308,-0.871 0.537,-1.27 2.147,-3.738 5.098,-5.574 9.316,-6.212 0.405,-0.061 0.817,-0.059 1.226,-0.062 2.116,-0.017 4.232,0 6.347,0 1.45,0.073 1.936,0.036 3.565,0.539 5.292,1.632 8.666,6.667 8.39,12.142 -2.336,1.612 -4.99,2.595 -7.773,3.114 -1.084,0.202 -2.189,0.269 -3.284,0.404 z"
         id="path10650" /><g
         id="g10652"><path
           style="fill:#8080ff"
           inkscape:connector-curvature="0"
           d="m 317.507,561.169 c -11.88,0 -33.499,-12.194 -33.499,-26.8 0,-14.606 19.856,-7.052 31.735,-7.052 11.88,0 34.557,-6.848 34.557,7.758 0,14.606 -20.914,26.094 -32.793,26.094 z"
           id="path10654" /><path
           style="fill-opacity:0;stroke:#5252a5;stroke-width:2.5"
           inkscape:connector-curvature="0"
           d="m 317.507,561.169 c -11.88,0 -33.499,-12.194 -33.499,-26.8 0,-14.606 19.856,-7.052 31.735,-7.052 11.88,0 34.557,-6.848 34.557,7.758 0,14.606 -20.914,26.094 -32.793,26.094 z"
           id="path10656" /></g><path
         style="fill:#47478e"
         inkscape:connector-curvature="0"
         d="m 323.769,548.888 c -5.5,-0.2 -6.266,-0.068 -12.787,-1.393 -1.989,-0.404 -3.926,-1.035 -5.856,-1.663 -8.304,-2.7 -16.471,-8.281 -20.937,-15.892 0.644,-1.36 0.659,-1.725 1.878,-2.786 3.981,-3.466 11.901,-2.197 16.552,-1.644 4.964,0.59 9.948,1.587 14.971,1.233 5.551,-0.391 11.076,-1.327 16.643,-1.489 4.048,-0.117 9.256,-0.203 12.663,2.519 3.993,3.189 3.271,9.236 1.487,13.387 -0.365,0.85 -0.828,1.653 -1.271,2.464 -0.082,0.151 -0.165,0.314 -0.302,0.416 -0.221,0.165 -0.489,0.258 -0.744,0.362 -1.212,0.494 -2.411,1.026 -3.655,1.43 -6.589,2.143 -6.615,1.775 -14.246,2.896 z"
         id="path10658" /></g><g
       id="Dictionary"><g
         id="g10661"><path
           style="fill:#80ff80"
           inkscape:connector-curvature="0"
           d="m 354.378,693.833 c -0.998,0.555 -2.094,0.912 -3.228,1.029 l -5.384,2.952 c -0.565,0.311 -3.012,-3.063 -5.465,-7.534 l -41.502,-75.665 c -2.452,-4.472 -3.982,-8.348 -3.416,-8.658 l 5.415,-2.971 c 0.642,-0.939 1.629,-1.553 2.578,-2.138 l 55.742,-30.574 c 4.526,-2.483 10.208,-0.826 12.691,3.7 l 42.011,76.594 c 2.483,4.526 0.826,10.208 -3.7,12.691 z"
           id="path10663" /><path
           style="fill-opacity:0;stroke:#736160;stroke-width:1.94700003"
           inkscape:connector-curvature="0"
           d="m 354.378,693.833 c -0.998,0.555 -2.094,0.912 -3.228,1.029 l -5.384,2.952 c -0.565,0.311 -3.012,-3.063 -5.465,-7.534 l -41.502,-75.665 c -2.452,-4.472 -3.982,-8.348 -3.416,-8.658 l 5.415,-2.971 c 0.642,-0.939 1.629,-1.553 2.578,-2.138 l 55.742,-30.574 c 4.526,-2.483 10.208,-0.826 12.691,3.7 l 42.011,76.594 c 2.483,4.526 0.826,10.208 -3.7,12.691 z"
           id="path10665" /></g><path
         style="fill:#509f50"
         inkscape:connector-curvature="0"
         d="m 339.801,689.78 -24.745,-45.115 c 5.975,2.665 7.173,3.391 13.569,5.423 25.791,8.195 57.911,7.496 82.744,-3.577 l 1.951,3.557 c 2.482,4.526 0.826,10.208 -3.701,12.691 l -55.742,30.574 c -0.998,0.555 -2.093,0.913 -3.228,1.029 l -5.383,2.952 c -0.566,0.311 -3.013,-3.063 -5.465,-7.534 z"
         id="path10667" /><path
         style="fill-opacity:0;stroke:#736160;stroke-width:1.94700003"
         inkscape:connector-curvature="0"
         d="m 306.728,610.739 40.602,76.696"
         id="path10669" /><text
         transform="matrix(0.877,-0.481,0.481,0.877,358.255,631.581)"
         id="text10671"><tspan
           style="font-size:83.34899902px;fill:#736160;font-family:Georgia"
           x="-31.215"
           y="28.483"
           font-size="83.349"
           id="tspan10673">D</tspan></text>
<path
         style="fill-opacity:0;stroke:#736160;stroke-width:1.94700003"
         inkscape:connector-curvature="0"
         d="m 354.378,693.833 c -0.998,0.555 -2.094,0.912 -3.228,1.029 l -5.384,2.952 c -0.565,0.311 -3.012,-3.063 -5.465,-7.534 l -41.502,-75.665 c -2.452,-4.472 -3.982,-8.348 -3.416,-8.658 l 5.415,-2.971 c 0.642,-0.939 1.629,-1.553 2.578,-2.138 l 55.742,-30.574 c 4.526,-2.483 10.208,-0.826 12.691,3.7 l 42.011,76.594 c 2.483,4.526 0.826,10.208 -3.7,12.691 z"
         id="path10675" /></g><g
       id="Left arm"><g
         id="g10678"><path
           style="fill:#ffded6"
           inkscape:connector-curvature="0"
           d="m 358.005,584.626 c -7.576,-17.347 -5.54,-33.007 32.852,-49.776 10.497,-4.302 4.724,-2.129 17.39,-6.324 1.644,-2.603 1.7,-2.8 5.586,-6.224 11.587,-10.213 28.43,-12.075 41.819,-4.325 5.671,3.281 6.667,5.046 11.086,9.77 0.579,0.917 -0.29,-0.367 1.737,1.256 2.725,2.181 5.355,5.054 6.232,8.549 0.711,2.831 0.89,4.213 0.624,7.149 -0.084,0.935 -0.491,1.828 -0.534,2.766 -0.027,0.586 0.277,1.143 0.329,1.727 0.123,1.365 0.129,2.738 0.194,4.108 0,22.187 -16.826,40.173 -37.582,40.173 -5.432,-0.293 -2.589,0.066 -8.509,-1.224 -6.164,3.397 -2.553,1.524 -10.936,5.415 -38.393,16.769 -52.712,4.306 -60.288,-13.04 z"
           id="path10680" /><path
           style="fill-opacity:0;stroke:#736160;stroke-width:3.24000001"
           inkscape:connector-curvature="0"
           d="m 358.005,584.626 c -7.576,-17.347 -5.54,-33.007 32.852,-49.776 10.497,-4.302 4.724,-2.129 17.39,-6.324 1.644,-2.603 1.7,-2.8 5.586,-6.224 11.587,-10.213 28.43,-12.075 41.819,-4.325 5.671,3.281 6.667,5.046 11.086,9.77 0.579,0.917 -0.29,-0.367 1.737,1.256 2.725,2.181 5.355,5.054 6.232,8.549 0.711,2.831 0.89,4.213 0.624,7.149 -0.084,0.935 -0.491,1.828 -0.534,2.766 -0.027,0.586 0.277,1.143 0.329,1.727 0.123,1.365 0.129,2.738 0.194,4.108 0,22.187 -16.826,40.173 -37.582,40.173 -5.432,-0.293 -2.589,0.066 -8.509,-1.224 -6.164,3.397 -2.553,1.524 -10.936,5.415 -38.393,16.769 -52.712,4.306 -60.288,-13.04 z"
           id="path10682" /></g><path
         style="fill:#ffe7ed"
         inkscape:connector-curvature="0"
         d="m 379.656,584.223 c -3.931,-0.191 -7.964,-0.732 -11.577,-2.38 0.385,-3.54 1.623,-6.815 3.405,-9.867 6.88,-11.004 21.384,-18.021 32.779,-23.138 10.496,-4.302 4.724,-2.129 17.389,-6.325 1.644,-2.603 1.7,-2.799 5.586,-6.224 2.657,-2.163 3.47,-2.968 7.015,-4.856 10.998,-5.854 23.251,-5.546 34.182,0.204 l 0.011,0.303 c 0,22.187 -16.826,40.173 -37.582,40.173 -5.432,-0.293 -2.589,0.066 -8.509,-1.225 -6.164,3.398 -2.553,1.525 -10.936,5.416 -7.052,3.051 -14.337,5.696 -21.921,7.063 -1.703,0.307 -3.431,0.46 -5.146,0.69 z"
         id="path10684" /><path
         style="fill:#ffbe92"
         inkscape:connector-curvature="0"
         d="m 386.031,605.085 c -5.183,-0.137 -10.282,-1.23 -14.791,-3.869 -6.515,-3.813 -10.775,-10.315 -13.734,-17.091 -0.465,-1.064 -0.948,-2.126 -1.302,-3.233 -2.18,-6.812 -3.261,-12.083 -0.763,-18.957 0.039,4.119 1.584,8.106 3.215,11.838 4.747,10.869 11.998,18.982 24.254,20.637 12.384,1.672 24.829,-2.875 36.034,-7.596 8.383,-3.892 4.772,-2.019 10.936,-5.416 5.92,1.291 3.077,0.932 8.509,1.225 12.07,-0.063 23.233,-6.296 30.116,-16.137 3.279,-4.689 4.706,-8.574 6.283,-13.997 l 0.018,-0.094 0.015,0.407 c 0,22.187 -16.826,40.173 -37.582,40.173 -5.432,-0.293 -2.589,0.066 -8.509,-1.224 -6.164,3.397 -2.553,1.524 -10.936,5.415 -7.052,3.051 -14.337,5.696 -21.921,7.063 -1.703,0.307 -3.431,0.46 -5.146,0.69 z"
         id="path10686" /><path
         style="fill-opacity:0;stroke:#736160;stroke-width:3.24000001"
         inkscape:connector-curvature="0"
         d="m 358.005,584.626 c -7.576,-17.347 -5.54,-33.007 32.852,-49.776 10.497,-4.302 4.724,-2.129 17.39,-6.324 1.644,-2.603 1.7,-2.8 5.586,-6.224 11.587,-10.213 28.43,-12.075 41.819,-4.325 5.671,3.281 6.667,5.046 11.086,9.77 0.579,0.917 -0.29,-0.367 1.737,1.256 2.725,2.181 5.355,5.054 6.232,8.549 0.711,2.831 0.89,4.213 0.624,7.149 -0.084,0.935 -0.491,1.828 -0.534,2.766 -0.027,0.586 0.277,1.143 0.329,1.727 0.123,1.365 0.129,2.738 0.194,4.108 0,22.187 -16.826,40.173 -37.582,40.173 -5.432,-0.293 -2.589,0.066 -8.509,-1.224 -6.164,3.397 -2.553,1.524 -10.936,5.415 -38.393,16.769 -52.712,4.306 -60.288,-13.04 z"
         id="path10688" /><g
         id="g10690"><path
           style="fill:#373737"
           inkscape:connector-curvature="0"
           d="m 351.315,628.833 c -1.503,-1.155 -1.111,-0.733 -2.631,-2.727 -4.426,-5.805 9.098,-31.536 5.306,-37.751 -6.783,-11.116 -30.675,-3.03 -37.153,-14.326 14.534,-10.144 29.915,-19.157 46.184,-26.219 11.779,1.751 23.669,7.678 29.807,18.211 2.599,4.458 3.84,10.956 4.423,15.979 1.062,9.155 0.454,18.956 -2.651,27.674 -14.032,7.031 -28.509,13.114 -43.024,19.064 z"
           id="path10692" /><path
           style="fill-opacity:0;stroke:#000000;stroke-width:3.24000001"
           inkscape:connector-curvature="0"
           d="m 351.315,628.833 c -1.503,-1.155 -1.111,-0.733 -2.631,-2.727 -4.426,-5.805 9.098,-31.536 5.306,-37.751 -6.783,-11.116 -30.675,-3.03 -37.153,-14.326 14.534,-10.144 29.915,-19.157 46.184,-26.219 11.779,1.751 23.669,7.678 29.807,18.211 2.599,4.458 3.84,10.956 4.423,15.979 1.062,9.155 0.454,18.956 -2.651,27.674 -14.032,7.031 -28.509,13.114 -43.024,19.064 z"
           id="path10694" /></g></g><g
       id="Face"><path
         style="fill:#ffded6"
         inkscape:connector-curvature="0"
         d="M 365.996,529.858 C 299.875,552.418 227.696,516.257 204.779,449.09 181.862,381.923 225.878,315.534 292,292.974 c 66.121,-22.56 147.798,15.115 170.715,82.282 22.917,67.167 -30.597,132.042 -96.719,154.602 z"
         id="path10697" /><path
         style="fill:#ffbe92"
         inkscape:connector-curvature="0"
         d="m 322.314,536.524 c -10.949,-0.844 -13.676,-0.648 -24.406,-3.091 -38.122,-8.681 -71.47,-35.433 -87.739,-71.058 18.876,36.266 56.214,61.725 96.654,66.847 19.623,2.485 37.234,0.151 55.996,-5.717 66.122,-22.56 114.375,-92.281 91.458,-159.447 -3.337,-9.437 -7.527,-18.696 -13.178,-26.995 9.603,11.212 16.667,24.339 21.616,38.193 22.917,67.167 -30.597,132.042 -96.719,154.602 -10.051,3.791 -20.655,5.062 -31.227,6.38 z"
         id="path10699" /><path
         style="fill:#ffe7ed"
         inkscape:connector-curvature="0"
         d="m 384.186,469.497 c -14.358,-8.465 -15.525,-33.093 -2.605,-55.008 12.92,-21.915 35.033,-32.818 49.391,-24.354 14.358,8.465 15.525,33.092 2.605,55.008 -12.92,21.915 -35.033,32.819 -49.391,24.354 z"
         id="path10701" /><path
         style="fill:#ffe7ed"
         inkscape:connector-curvature="0"
         d="m 261.864,333.111 c -7.128,0.175 -14.665,-0.636 -20.517,-5.126 -2.077,-1.593 -2.315,-2.126 -3.947,-4.137 10.016,-9.503 21.709,-17.307 34.081,-23.409 3.87,-1.909 7.86,-3.568 11.845,-5.223 2.709,-1.125 9.529,-3.464 12.375,-4.182 12.79,-3.228 11.197,-2.668 23.36,-4.08 -0.187,1.509 -0.198,3.05 -0.562,4.526 -4.549,18.45 -23.254,32.446 -40.535,38.387 -2.688,0.924 -5.485,1.49 -8.228,2.236 z"
         id="path10703" /><path
         style="fill:#ffe7ed"
         inkscape:connector-curvature="0"
         d="m 252.214,503.427 c -3.268,-0.003 -6.532,-0.404 -9.702,-1.207 -1.232,-0.312 -2.441,-0.713 -3.646,-1.119 -0.459,-0.154 -0.958,-0.264 -1.341,-0.56 -3.243,-2.504 -10.567,-11.304 -11.214,-12.114 -6.325,-7.914 -7.46,-10.343 -12.317,-18.447 -0.778,-1.418 -0.561,-3.301 -0.601,-4.874 0,-21.164 17.381,-38.321 38.821,-38.321 21.441,0 38.822,17.157 38.822,38.321 0,21.164 -17.381,38.321 -38.822,38.321 z"
         id="path10705" /></g><g
       id="Ears"><path
         style="fill:#ffded6"
         inkscape:connector-curvature="0"
         d="m 415.214,313.329 c -15.45,-11.332 -33.849,-19.342 -52.531,-23.516 -11.43,-2.554 -14.207,-2.374 -25.836,-3.319 -13.494,0.207 -8.693,-0.301 -14.477,0.371 7.227,-3.944 14.671,-8.198 19.849,-14.754 6.403,-9.284 5.763,-19.529 25.29,-16.968 19.528,2.562 33.294,0.961 38.416,8.324 5.122,7.363 14.406,22.409 10.885,40.657 l -1.231,6.929 z"
         id="path10708" /><path
         style="fill:#ffbe92"
         inkscape:connector-curvature="0"
         d="m 402.277,309.544 c -4.865,3.547 -15.455,-2.026 -23.655,-12.447 -8.199,-10.421 -10.902,-21.745 -6.037,-25.291 4.865,-3.547 15.455,2.026 23.655,12.447 8.199,10.421 10.902,21.745 6.037,25.291 z"
         id="path10710" /><path
         style="fill:#df9080"
         inkscape:connector-curvature="0"
         d="m 398.99,310.605 c -2.502,0.036 -4.776,-0.795 -6.951,-1.94 -1.473,-5.775 -3.217,-11.481 -5.328,-17.055 -0.354,-0.936 -1.188,-2.879 -1.725,-3.761 -0.687,-1.128 -1.395,-2.247 -2.197,-3.297 -3.169,-4.147 -7.488,-7.66 -12.012,-10.244 1.167,-2.073 0.491,-1.297 1.808,-2.503 4.865,-3.546 15.456,2.027 23.655,12.448 8.199,10.422 10.902,21.744 6.037,25.291 l -0.977,0.559 z"
         id="path10712" /><path
         style="fill:#ffded6"
         inkscape:connector-curvature="0"
         d="m 403.252,341.015 -1.026,-0.054 c -5.57,-1.044 -5.221,-13.228 -5.221,-17.753 0,-4.525 -5.57,-27.674 -9.921,-37.42 -4.351,-9.747 -16.013,-15.839 -16.013,-15.839 l 8.165,-13.608 c 6.8,0.816 16.824,0.497 22.915,3.843 3.285,1.805 5.131,5.099 6.982,8.205 6.521,10.941 10.032,22.968 7.677,35.735 -1.323,7.172 -2.086,26.532 -9.837,34.734 -0.533,0.564 -1.189,0.997 -1.783,1.496 z"
         id="path10714" /><path
         style="fill:#ffbe92"
         inkscape:connector-curvature="0"
         d="m 403.252,341.015 c -1.506,0.029 -1.852,-0.25 -2.974,-1.189 l 0.425,-0.145 c 0.595,-0.499 1.25,-0.932 1.783,-1.496 0.458,-0.554 0.981,-1.06 1.373,-1.663 0.836,-1.282 1.643,-2.591 2.3,-3.974 2.881,-6.065 3.928,-12.933 4.857,-19.515 2.389,-16.916 -1.008,6.462 1.063,-8.101 0.155,-1.086 0.518,-2.899 0.617,-3.866 0.366,-3.583 0.501,-5.769 0.203,-9.357 -0.587,-7.082 -2.859,-13.483 -5.954,-19.839 -0.693,-1.423 -1.532,-2.769 -2.299,-4.154 -1.851,-3.107 -3.697,-6.4 -6.982,-8.205 -1.998,-1.17 -4.248,-1.626 -6.477,-2.111 3.801,0.256 7.544,1.096 10.965,2.784 3.284,1.805 5.13,5.099 6.982,8.206 5.12,8.695 8.622,18.433 8.401,28.633 -0.067,3.057 -0.55,5.637 -0.969,8.583 -2.064,14.513 1.318,-8.758 -1.063,8.1 -0.929,6.582 -1.976,13.45 -4.857,19.515 -0.657,1.383 -1.464,2.692 -2.3,3.974 -0.392,0.603 -0.915,1.109 -1.373,1.663 -0.533,0.564 -1.188,0.997 -1.782,1.496 z"
         id="path10716" /><path
         style="fill:#736160"
         inkscape:connector-curvature="0"
         d="m 402.887,340.65 -1.025,-0.054 c -5.57,-1.044 -5.222,-13.227 -5.222,-17.752 -0.638,-6.639 -2.349,-13.186 -4.079,-19.615 -1.624,-6.038 -3.423,-12.034 -5.842,-17.806 -4.351,-9.747 -16.012,-15.838 -16.012,-15.838 l 0.13,-0.401 c 0,0 13.775,4.922 18.126,14.669 3.758,9.245 6.389,18.952 8.496,28.699 0.61,2.82 1.326,5.808 1.425,8.721 0,4.525 -0.348,16.709 5.221,17.753 1.493,0.078 0.702,0.164 2.353,-0.398 -1.008,0.896 -0.467,0.439 -1.632,1.362 z"
         id="path10718" /><path
         style="fill:#ffded6"
         inkscape:connector-curvature="0"
         d="m 259.731,312.99 c 0,0 -16.416,-1.459 -25.718,-6.384 -9.302,-4.925 -17.328,-9.12 -25.171,-5.29 -7.842,3.831 -13.132,21.888 -14.591,30.643 -1.459,8.755 -2.554,24.258 -2.554,30.642 0,6.384 4.195,14.227 4.195,14.227 0,0 3.101,-10.944 6.567,-14.956 3.465,-4.013 5.654,-4.743 6.931,-13.315 1.276,-8.573 1.427,-15.491 1.427,-15.491 0,0 4.774,-11.139 5.686,-6.944 0.912,4.195 2.736,20.976 2.736,20.976 l 40.492,-34.108 z"
         id="path10720" /><path
         style="fill:#ffbe92"
         inkscape:connector-curvature="0"
         d="m 195.893,376.828 c 0,0 -4.196,-7.843 -4.196,-14.226 0.07,-6.273 0.539,-12.539 1.105,-18.783 0.86,-9.485 2.107,-17.71 5.457,-26.722 1.589,-4.277 3.5,-8.734 6.45,-12.28 0.801,-0.963 1.739,-1.809 2.693,-2.621 0.405,-0.345 0.908,-0.554 1.362,-0.831 l 1.418,14.397 c -0.257,-0.322 -0.167,6.058 -0.436,5.746 0.358,9.139 0.449,11.604 0.118,20.752 -0.147,4.077 -0.463,9.474 -2.315,13.219 -1.237,2.503 -3.251,4.357 -5.09,6.393 -3.466,4.013 -6.566,14.956 -6.566,14.956 z"
         id="path10722" /><path
         style="fill:#df9080"
         inkscape:connector-curvature="0"
         d="m 191.697,362.601 c 0.07,-6.272 0.538,-12.539 1.105,-18.783 0.86,-9.485 2.107,-17.71 5.456,-26.722 1.59,-4.277 3.501,-8.734 6.45,-12.28 0.802,-0.963 1.74,-1.809 2.694,-2.621 0.405,-0.344 0.908,-0.554 1.362,-0.831 l 0.487,4.94 -1.171,1.241 c -2.95,3.546 -4.861,8.004 -6.45,12.281 -3.35,9.012 -4.597,17.236 -5.457,26.721 -0.566,6.244 -1.035,12.511 -1.104,18.783 l -3.372,-2.729 z"
         id="path10724" /><path
         style="fill:#ffe7ed"
         inkscape:connector-curvature="0"
         d="m 192.453,368.668 c -1.128,-4.782 -0.84,-2.625 -1.121,-6.431 0,-6.384 1.095,-21.888 2.554,-30.643 1.459,-8.755 6.748,-26.812 14.592,-30.642 7.842,-3.83 15.868,0.365 25.17,5.289 3.862,2.022 8.083,3.2 12.309,4.177 l -0.818,3.119 c 0,0 -23.529,-13.132 -30.278,-11.491 -6.748,1.642 -10.761,3.831 -12.585,9.85 -1.824,6.019 -3.101,14.774 -2.189,19.516 1.157,3.696 5.102,5.75 7.829,8.126 0.579,0.505 1.92,3.047 2.451,3.602 0.009,2.341 0.146,4.994 -0.062,7.322 -0.35,3.899 -3.968,8.047 -5.522,9.351 -0.422,0.354 -3.353,2.843 -3.784,3.153 -2.73,1.769 -5.464,3.533 -8.13,5.397 z"
         id="path10726" /></g><g
       id="Blush"><path
         style="fill:#ff8080"
         inkscape:connector-curvature="0"
         d="m 409.182,460.48 c -11.333,0 -20.519,-8.917 -20.519,-19.916 0,-10.999 9.186,-19.916 20.519,-19.916 11.333,0 20.519,8.917 20.519,19.916 0,10.999 -9.186,19.916 -20.519,19.916 z"
         id="path10729" /><path
         style="fill:#ff8080"
         inkscape:connector-curvature="0"
         d="m 231.749,483.414 c -7.333,0 -13.277,-6.891 -13.277,-15.39 0,-8.499 5.944,-15.39 13.277,-15.39 7.333,0 13.277,6.891 13.277,15.39 0,8.499 -5.944,15.39 -13.277,15.39 z"
         id="path10731" /></g><g
       id="Mouth"><path
         style="fill:#434343"
         inkscape:connector-curvature="0"
         d="m 295.117,488.242 c 0,0 22.094,-1.258 33.561,-4.879 11.466,-3.621 21.004,-12.36 24.022,-20.205 3.017,-7.846 15.443,-20.783 15.443,-20.783 0,0 17.56,13.15 16.437,32.233 -1.123,19.083 -5.164,35.921 -17.287,39.962 -12.124,4.041 -29.635,-1.123 -36.146,-7.409 -6.51,-6.286 -36.03,-18.919 -36.03,-18.919 z"
         id="path10734" /><path
         style="fill:#ffffff"
         inkscape:connector-curvature="0"
         d="m 319.699,499.881 c -6.137,-3.246 -12.417,-6.212 -18.744,-9.063 -1.937,-0.873 -3.917,-1.671 -5.837,-2.58 l 0.064,0 c 11.242,-0.85 22.617,-1.747 33.496,-4.875 11.467,-3.621 21.005,-12.36 24.023,-20.205 3.017,-7.846 15.442,-20.783 15.442,-20.783 3.963,3.157 7.41,6.982 10.218,11.197 0.741,1.113 1.323,2.325 1.984,3.487 -6.421,7.27 -12.932,14.465 -19.722,21.396 -2.965,3.027 -7.927,8.235 -11.734,10.407 -2.868,1.636 -6.12,2.768 -9.196,3.93 -5.936,2.241 -7.531,2.757 -14.098,5.077 z"
         id="path10736" /><path
         style="fill:#c9c9c9"
         inkscape:connector-curvature="0"
         d="m 315.437,497.736 c -8.139,-4.095 -3.334,-1.743 -14.483,-6.919 -1.936,-0.873 -3.916,-1.671 -5.836,-2.579 l 0.064,0 c 8.875,-0.715 11.345,-0.807 21.081,-2.182 1.78,-0.252 3.529,-0.688 5.293,-1.032 -3.145,4.586 -1.38,1.738 -4.872,8.792 z"
         id="path10738" /><path
         style="fill:#c9c9c9"
         inkscape:connector-curvature="0"
         d="m 355.792,457.529 c 3.628,-5.42 7.865,-10.426 12.352,-15.154 3.979,3.447 3.641,2.956 7.994,8.114 0.805,0.955 1.462,2.028 2.193,3.042 -2.889,-0.372 -1.257,-0.231 -4.904,-0.306 -3.295,0.241 -4.729,0.238 -8.262,1.13 -2.421,0.611 -4.775,1.462 -7.163,2.193 z"
         id="path10740" /><path
         style="fill-opacity:0;stroke:#736160;stroke-width:1.5"
         inkscape:connector-curvature="0"
         d="m 295.617,488.742 c 0,0 22.094,-1.258 33.561,-4.879 11.466,-3.621 21.004,-12.36 24.022,-20.205 3.017,-7.846 15.443,-20.783 15.443,-20.783 0,0 17.56,13.15 16.437,32.233 -1.123,19.083 -5.164,35.921 -17.287,39.962 -12.124,4.041 -29.635,-1.123 -36.146,-7.409 -6.51,-6.286 -36.03,-18.919 -36.03,-18.919 z"
         id="path10742" /><path
         style="fill:#ff0000"
         inkscape:connector-curvature="0"
         d="m 360.013,515.925 c -5.205,0.268 -10.372,-0.395 -15.376,-1.835 -1.58,-0.454 -3.109,-1.074 -4.663,-1.611 l -0.317,-0.151 c 1.392,-3.365 4.05,-6.037 7.134,-7.921 1.29,-0.788 2.704,-1.358 4.101,-1.935 0.691,-0.286 1.432,-0.431 2.148,-0.647 2.691,-0.669 3.351,-0.634 5.546,-0.724 3.134,-5 7.858,-7.304 13.642,-7.603 2.775,-0.029 5.375,0.783 7.828,2.033 0.442,0.225 0.815,0.564 1.223,0.847 -1.386,5.437 -3.908,10.702 -7.985,14.639 -0.838,0.808 -1.82,1.459 -2.8,2.088 -1.727,1.108 -3.589,1.573 -5.533,2.117 z"
         id="path10744" /></g><g
       id="Eyes"><g
         id="g10747"><path
           style="fill:#000000"
           inkscape:connector-curvature="0"
           d="m 343.579,428.903 c -21.984,0 -33.205,-36.405 -33.205,-60.732 0,-24.328 8.38,-39.336 30.365,-39.336 21.985,0 46.563,20.272 46.563,44.6 0,24.327 -21.738,55.468 -43.723,55.468 z"
           id="path10749" /><path
           style="fill:#ffffff"
           inkscape:connector-curvature="0"
           d="m 343.58,428.903 c -21.985,0 -38.012,-21.026 -38.012,-45.354 0,-24.327 11.949,-50.9 33.933,-50.9 21.985,0 45.517,21.189 45.517,45.517 0,24.327 -19.453,50.737 -41.438,50.737 z"
           id="path10751" /><path
           style="fill:#e1e1e1"
           inkscape:connector-curvature="0"
           d="m 384.62,383.997 c -1.09,-3.7 -1.227,-4.644 -2.838,-8.176 -5.284,-11.584 -15.481,-20.783 -27.846,-24.132 -3.517,-0.953 -7.055,-1.323 -10.682,-1.42 -10.721,0.049 -21.009,4.304 -28.74,11.718 -3.28,3.146 -5.389,6.208 -7.816,10 l -0.19,0.37 c 1.842,-14.219 8.994,-32.064 23.43,-37.871 3.101,-1.248 6.253,-1.711 9.563,-1.837 21.985,0 45.517,21.19 45.517,45.517 l -0.056,2.286 z"
           id="path10753" /><g
           id="g10755"><path
             style="fill:#000000"
             inkscape:connector-curvature="0"
             d="m 341.5,428.5 c -17.121,0 -31,-17.461 -31,-39 0,-21.539 13.879,-39 31,-39 17.121,0 31,17.461 31,39 0,21.539 -13.879,39 -31,39 z"
             id="path10757" /><path
             style="fill-opacity:0;stroke:#000000;stroke-width:1"
             inkscape:connector-curvature="0"
             d="m 341.5,428.5 c -17.121,0 -31,-17.461 -31,-39 0,-21.539 13.879,-39 31,-39 17.121,0 31,17.461 31,39 0,21.539 -13.879,39 -31,39 z"
             id="path10759" /></g><g
           id="g10761"><path
             style="fill:#8080ff"
             inkscape:connector-curvature="0"
             d="m 346.5,423.5 c -11.046,0 -20,-12.536 -20,-28 0,-15.464 8.954,-28 20,-28 11.046,0 20,12.536 20,28 0,15.464 -8.954,28 -20,28 z"
             id="path10763" /><path
             style="fill-opacity:0;stroke:#000000;stroke-width:1"
             inkscape:connector-curvature="0"
             d="m 346.5,423.5 c -11.046,0 -20,-12.536 -20,-28 0,-15.464 8.954,-28 20,-28 11.046,0 20,12.536 20,28 0,15.464 -8.954,28 -20,28 z"
             id="path10765" /></g><g
           id="g10767"><path
             style="fill:#000000"
             inkscape:connector-curvature="0"
             d="m 346.037,406.89 c -7.839,0 -14.194,-8.692 -14.194,-19.414 10e-4,-10.722 6.355,-19.414 14.194,-19.414 7.839,0 14.193,8.692 14.193,19.414 0,10.722 -6.354,19.414 -14.193,19.414 z"
             id="path10769" /><path
             style="fill-opacity:0;stroke:#000000;stroke-width:1"
             inkscape:connector-curvature="0"
             d="m 346.037,406.89 c -7.839,0 -14.194,-8.692 -14.194,-19.414 10e-4,-10.722 6.355,-19.414 14.194,-19.414 7.839,0 14.193,8.692 14.193,19.414 0,10.722 -6.354,19.414 -14.193,19.414 z"
             id="path10771" /></g><path
           style="fill:#ffffff"
           inkscape:connector-curvature="0"
           d="m 333.056,384.529 c -6.081,0 -11.011,-6.757 -11.011,-15.091 0,-8.334 4.93,-15.091 11.011,-15.091 6.082,0 11.013,6.757 11.013,15.091 0,8.334 -4.931,15.091 -11.013,15.091 z"
           id="path10773" /><path
           style="fill:#ffffff"
           inkscape:connector-curvature="0"
           d="m 362.178,340.807 c -0.09,0 -0.163,-0.293 -0.163,-0.653 0,-0.36 0.073,-0.653 0.163,-0.653 0.09,0 0.163,0.293 0.163,0.653 0,0.36 -0.073,0.653 -0.163,0.653 z"
           id="path10775" /><path
           style="fill:#000000"
           inkscape:connector-curvature="0"
           d="m 386.551,369.767 c 0,0 0.263,7.675 3.701,9.64 3.438,1.964 8.206,1.516 8.206,1.516 0,0 -5.714,4.187 -8.464,2.615 -2.751,-1.571 -3.013,-3.356 -3.013,-3.356 0,0 -1.039,2.399 3.185,3.873 4.224,1.473 7.919,0.602 7.919,0.602 0,0 -3.752,4.222 -7.779,3.436 -4.028,-0.785 -4.964,-4.421 -4.964,-4.421"
           id="path10777" /></g><g
         id="g10779"><path
           style="fill:#000000"
           inkscape:connector-curvature="0"
           d="m 256.13,430.029 c 19.388,0 29.283,-32.106 29.283,-53.56 0,-21.454 -7.39,-34.69 -26.779,-34.69 -19.388,0 -41.063,17.878 -41.063,39.332 0,21.455 19.171,48.918 38.559,48.918 z"
           id="path10781" /><path
           style="fill:#ffffff"
           inkscape:connector-curvature="0"
           d="m 256.13,430.029 c 19.388,0 33.522,-18.543 33.522,-39.997 0,-21.454 -10.537,-44.889 -29.925,-44.889 -19.389,0 -40.141,18.687 -40.141,40.141 0,21.454 17.156,44.745 36.544,44.745 z"
           id="path10783" /><path
           style="fill:#e1e1e1"
           inkscape:connector-curvature="0"
           d="m 219.936,390.426 c 0.962,-3.263 1.082,-4.096 2.503,-7.211 4.66,-10.216 13.652,-18.328 24.557,-21.282 3.102,-0.84 6.222,-1.167 9.421,-1.252 9.455,0.043 18.528,3.796 25.345,10.334 2.893,2.774 4.753,5.475 6.893,8.819 l 0.168,0.326 c -1.625,-12.539 -7.932,-28.277 -20.663,-33.398 -2.735,-1.1 -5.515,-1.509 -8.434,-1.62 -19.388,0 -40.141,18.687 -40.141,40.142 l 0.05,2.015 z"
           id="path10785" /><g
           id="g10787"><path
             style="fill:#000000"
             inkscape:connector-curvature="0"
             d="m 258.904,429.732 c 15.099,0 27.339,-15.399 27.339,-34.394 0,-18.995 -12.24,-34.394 -27.339,-34.394 -15.099,0 -27.339,15.399 -27.339,34.394 0,18.995 12.24,34.394 27.339,34.394 z"
             id="path10789" /><path
             style="fill-opacity:0;stroke:#000000;stroke-width:0.88200003"
             inkscape:connector-curvature="0"
             d="m 258.904,429.732 c 15.099,0 27.339,-15.399 27.339,-34.394 0,-18.995 -12.24,-34.394 -27.339,-34.394 -15.099,0 -27.339,15.399 -27.339,34.394 0,18.995 12.24,34.394 27.339,34.394 z"
             id="path10791" /></g><g
           id="g10793"><path
             style="fill:#8080ff"
             inkscape:connector-curvature="0"
             d="m 254.495,425.322 c 9.741,0 17.638,-11.055 17.638,-24.693 0,-13.638 -7.897,-24.693 -17.638,-24.693 -9.741,0 -17.638,11.055 -17.638,24.693 0,13.638 7.897,24.693 17.638,24.693 z"
             id="path10795" /><path
             style="fill-opacity:0;stroke:#000000;stroke-width:0.88200003"
             inkscape:connector-curvature="0"
             d="m 254.495,425.322 c 9.741,0 17.638,-11.055 17.638,-24.693 0,-13.638 -7.897,-24.693 -17.638,-24.693 -9.741,0 -17.638,11.055 -17.638,24.693 0,13.638 7.897,24.693 17.638,24.693 z"
             id="path10797" /></g><g
           id="g10799"><path
             style="fill:#000000"
             inkscape:connector-curvature="0"
             d="m 254.903,410.674 c 6.913,0 12.517,-7.665 12.517,-17.121 0,-9.456 -5.604,-17.121 -12.517,-17.121 -6.913,0 -12.517,7.665 -12.517,17.121 0,9.456 5.604,17.121 12.517,17.121 z"
             id="path10801" /><path
             style="fill-opacity:0;stroke:#000000;stroke-width:0.88200003"
             inkscape:connector-curvature="0"
             d="m 254.903,410.674 c 6.913,0 12.517,-7.665 12.517,-17.121 0,-9.456 -5.604,-17.121 -12.517,-17.121 -6.913,0 -12.517,7.665 -12.517,17.121 0,9.456 5.604,17.121 12.517,17.121 z"
             id="path10803" /></g><path
           style="fill:#ffffff"
           inkscape:connector-curvature="0"
           d="m 247.873,393.313 c 5.364,0 9.712,-5.958 9.712,-13.308 0,-7.35 -4.348,-13.308 -9.712,-13.308 -5.364,0 -9.712,5.958 -9.712,13.308 0,7.35 4.348,13.308 9.712,13.308 z"
           id="path10805" /><path
           style="fill:#ffffff"
           inkscape:connector-curvature="0"
           d="m 239.728,352.336 c 0.079,0 0.144,-0.257 0.144,-0.575 0,-0.318 -0.065,-0.576 -0.144,-0.576 -0.079,0 -0.144,0.258 -0.144,0.576 0,0.318 0.065,0.575 0.144,0.575 z"
           id="path10807" /><path
           style="fill:#000000"
           inkscape:connector-curvature="0"
           d="m 218.233,377.876 c 0,0 -0.232,6.77 -3.264,8.502 -3.032,1.733 -7.237,1.337 -7.237,1.337 0,0 5.04,3.693 7.465,2.307 2.426,-1.386 2.657,-2.961 2.657,-2.961 0,0 0.916,2.117 -2.809,3.416 -3.725,1.299 -6.983,0.531 -6.983,0.531 0,0 3.309,3.723 6.86,3.03 3.552,-0.692 4.378,-3.899 4.378,-3.899"
           id="path10809" /></g></g><g
       id="Nose"><g
         id="g10812"><path
           style="fill:#ffded6"
           inkscape:connector-curvature="0"
           d="m 309.899,401.846 c 0,0 -15.887,2.166 -28.404,6.981 -12.517,4.814 -26.72,21.905 -23.831,44.291 2.888,22.387 16.369,43.57 39.237,40.2 22.868,-3.37 23.108,-4.814 27.923,-6.74 4.814,-1.926 20.46,-16.609 22.868,-30.571 2.407,-13.961 -2.408,-31.775 -7.703,-38.755 -5.296,-6.981 -19.498,-15.165 -30.09,-15.406 z"
           id="path10814" /><path
           style="fill-opacity:0;stroke:#736160;stroke-width:2.5"
           inkscape:connector-curvature="0"
           d="m 309.899,401.846 c 0,0 -15.887,2.166 -28.404,6.981 -12.517,4.814 -26.72,21.905 -23.831,44.291 2.888,22.387 16.369,43.57 39.237,40.2 22.868,-3.37 23.108,-4.814 27.923,-6.74 4.814,-1.926 20.46,-16.609 22.868,-30.571 2.407,-13.961 -2.408,-31.775 -7.703,-38.755 -5.296,-6.981 -19.498,-15.165 -30.09,-15.406 z"
           id="path10816" /></g><path
         style="fill:#ffbe92"
         inkscape:connector-curvature="0"
         d="m 321.146,487.454 c 1.002,-3.333 1.53,-5.28 2.733,-8.529 0.585,-1.577 0.833,-1.664 1.475,-2.828 0.947,-1.718 1.503,-3.002 2.225,-4.913 3.426,-9.059 5.499,-18.847 5.522,-28.55 0.012,-5.288 -0.516,-10.699 -2.615,-15.608 -1.513,-3.538 -3.905,-6.355 -6.37,-9.261 -0.918,-1.082 -1.818,-2.182 -2.81,-3.196 -4.739,-4.841 -10.441,-8.729 -15.986,-12.571 1.357,-0.233 2.716,-0.46 4.079,-0.652 10.592,0.241 24.794,8.425 30.09,15.406 5.724,8.494 8.32,20.463 8.34,30.592 0.008,4.087 -0.173,4.81 -0.637,8.163 -2.407,13.962 -18.054,28.645 -22.868,30.571 l -1.644,0.704 z"
         id="path10818" /><path
         style="fill-opacity:0;stroke:#736160;stroke-width:1"
         inkscape:connector-curvature="0"
         d="m 314.232,410.272 c 23.762,9.891 22.894,45.05 11.795,63.549"
         id="path10820" /><path
         style="fill:#ffe7ed"
         inkscape:connector-curvature="0"
         d="m 260.328,446.348 -3.526,-0.178 c 0.15,-2.89 0.127,-4.542 0.723,-7.409 2.194,-10.556 7.613,-20.017 16.375,-26.477 5.018,-3.7 10.863,-5.439 16.795,-7.049 2.18,1.41 1.251,0.607 2.847,2.338 5.51,7.132 -0.021,20.637 -12.353,30.164 -3.607,2.767 -7.573,5.082 -11.847,6.663 -1.511,0.559 -3.09,0.907 -4.635,1.36 z"
         id="path10822" /><path
         style="fill-opacity:0;stroke:#736160;stroke-width:2.5"
         inkscape:connector-curvature="0"
         d="m 309.899,401.846 c 0,0 -15.887,2.166 -28.404,6.981 -12.517,4.814 -26.72,21.905 -23.831,44.291 2.888,22.387 16.369,43.57 39.237,40.2 22.868,-3.37 23.108,-4.814 27.923,-6.74 4.814,-1.926 20.46,-16.609 22.868,-30.571 2.407,-13.961 -2.408,-31.775 -7.703,-38.755 -5.296,-6.981 -19.498,-15.165 -30.09,-15.406 z"
         id="path10824" /><g
         id="g10826"><path
           style="fill:#736160"
           inkscape:connector-curvature="0"
           d="m 281.509,472.575 c -4.145,0.591 -8.593,-6.559 -9.934,-15.97 -1.34,-9.41 0.934,-17.517 5.08,-18.108 4.145,-0.591 8.593,6.559 9.934,15.97 1.34,9.41 -0.934,17.517 -5.08,18.108 z"
           id="path10828" /><path
           style="fill:#736160"
           inkscape:connector-curvature="0"
           d="m 307.297,468.901 c -4.145,0.591 -8.593,-6.559 -9.934,-15.97 -1.34,-9.41 0.934,-17.517 5.08,-18.108 4.145,-0.591 8.593,6.559 9.934,15.97 1.34,9.41 -0.934,17.517 -5.08,18.108 z"
           id="path10830" /></g></g><g
       id="Glasses"><g
         id="g10833"><path
           style="fill:#5c5c5c"
           inkscape:connector-curvature="0"
           d="m 272.967,413.806 -3.469,-3.601 c 6.521,-6.239 14.774,-10.542 23.733,-11.881 2.888,-0.431 3.721,-0.4 6.219,-0.462 7.961,0 15.623,2.243 22.382,6.44 l -2.638,4.248 c -5.977,-3.712 -12.728,-5.688 -19.744,-5.688 -6.718,0.042 -13.33,1.863 -19.101,5.296 -2.82,1.677 -3.433,2.316 -5.992,4.369 z"
           id="path10835" /><path
           style="fill:#373737"
           inkscape:connector-curvature="0"
           d="m 272.967,413.806 -2.091,-2.17 c 3.627,-3.245 7.886,-5.889 12.389,-7.739 2.074,-0.852 4.242,-1.463 6.402,-2.064 1.087,-0.302 2.216,-0.426 3.325,-0.639 2.887,-0.431 3.721,-0.4 6.219,-0.462 7.491,0.006 14.765,2.058 21.245,5.786 l -1.262,2.032 c -5.977,-3.712 -12.728,-5.688 -19.744,-5.688 -6.718,0.042 -13.33,1.863 -19.102,5.296 -2.82,1.677 -3.432,2.316 -5.991,4.369 z"
           id="path10837" /></g><path
         style="fill:#5c5c5c"
         inkscape:connector-curvature="0"
         d="m 246.916,436.073 c -14.767,0 -26.738,-11.971 -26.738,-26.738 0,-14.767 11.971,-26.738 26.738,-26.738 14.767,0 26.738,11.971 26.738,26.738 0,14.767 -11.971,26.738 -26.738,26.738 z m 0,-5.159 c 11.918,0 21.579,-9.661 21.579,-21.579 0,-11.918 -9.661,-21.579 -21.579,-21.579 -11.918,0 -21.579,9.661 -21.579,21.579 0,11.918 9.661,21.579 21.579,21.579 z"
         id="path10839" /><path
         style="fill:#373737"
         inkscape:connector-curvature="0"
         d="m 268.7,408.371 c -0.308,-7.405 -4.734,-14.285 -11.234,-17.805 -3.548,-1.92 -6.36,-2.406 -10.286,-2.604 -2.609,0.132 -3.485,0.065 -6.417,0.97 -8.524,2.63 -14.655,10.55 -15.103,19.438 -0.528,-8.217 3.999,-16.228 11.234,-20.145 2.868,-1.553 4.87,-2.008 8.079,-2.493 0.983,-0.149 3.431,-0.149 4.413,0 1.416,0.214 2.842,0.436 4.211,0.859 5.326,1.643 9.906,5.425 12.558,10.323 1.92,3.548 2.406,6.359 2.604,10.286 z"
         id="path10841" /><path
         style="fill:#5c5c5c"
         inkscape:connector-curvature="0"
         d="m 343.495,425.773 c -14.767,0 -26.738,-11.971 -26.738,-26.738 0,-14.767 11.971,-26.738 26.738,-26.738 14.767,0 26.738,11.971 26.738,26.738 0,14.767 -11.971,26.738 -26.738,26.738 z m 0,-5.159 c 11.918,0 21.579,-9.661 21.579,-21.579 0,-11.918 -9.661,-21.579 -21.579,-21.579 -11.918,0 -21.579,9.661 -21.579,21.579 0,11.918 9.661,21.579 21.579,21.579 z"
         id="path10843" /><path
         style="fill:#373737"
         inkscape:connector-curvature="0"
         d="m 365.279,398.071 c -0.308,-7.405 -4.734,-14.285 -11.234,-17.805 -3.548,-1.92 -6.36,-2.406 -10.286,-2.604 -2.609,0.132 -3.485,0.065 -6.417,0.97 -8.524,2.63 -14.655,10.55 -15.104,19.438 -0.527,-8.217 3.999,-16.228 11.235,-20.145 2.868,-1.553 4.87,-2.008 8.079,-2.493 0.983,-0.149 3.431,-0.149 4.413,0 1.417,0.214 2.842,0.436 4.211,0.859 5.326,1.643 9.906,5.425 12.558,10.323 1.92,3.548 2.406,6.359 2.604,10.286 z"
         id="path10845" /><path
         style="fill:#c9c9c9"
         inkscape:connector-curvature="0"
         d="m 230.349,388.778 -0.094,-0.31 c 2.977,-2.188 5.888,-4.093 9.589,-4.848 l 0.052,0.064 c 0.711,1.332 -0.85,3.552 -3.487,4.959 -2.636,1.406 -5.349,1.467 -6.06,0.135 z"
         id="path10847" /><path
         style="fill:#c9c9c9"
         inkscape:connector-curvature="0"
         d="m 321.445,387.787 c -1.705,-0.002 -1.084,0.243 -1.988,-0.249 1.389,-3.678 4.195,-6.538 7.03,-9.135 0.374,-0.343 0.841,-0.568 1.261,-0.852 0.115,0.143 0.289,0.255 0.346,0.429 0.424,1.322 0.352,2.081 -0.169,3.429 -0.56,1.447 -1.604,3.074 -2.796,4.124 -0.596,0.525 -1.249,0.981 -1.873,1.472 z"
         id="path10849" /></g><g
       id="Face outline"><path
         style="fill-opacity:0;stroke:#736160;stroke-width:2"
         inkscape:connector-curvature="0"
         d="m 353.052,288.39 c -0.708,-0.106 -1.424,-0.159 -2.137,-0.238 m -13.567,-1.158 11.7,0.951 c -2.885,-0.321 -1.126,-0.141 -5.977,-0.513 -1.214,-0.093 -2.428,-0.182 -3.643,-0.273 z M 205.279,449.59 c -2.307,-7.434 -3.264,-9.894 -4.717,-18.835 -4.767,-29.339 2.944,-60.14 20.356,-84.15 l -1.179,0.992 c 0,0 -1.824,-16.78 -2.736,-20.975 -0.912,-4.195 -5.686,6.943 -5.686,6.943 0,0 -0.15,6.919 -1.427,15.492 -1.277,8.572 -3.466,9.302 -6.931,13.314 -3.466,4.013 -6.566,14.957 -6.566,14.957 0,0 -4.195,-7.843 -4.195,-14.227 0,-6.384 1.094,-21.887 2.553,-30.642 1.459,-8.755 6.749,-26.813 14.592,-30.643 7.843,-3.83 15.868,0.365 25.17,5.29 6.312,3.154 13.309,4.616 20.238,5.681 16.954,-11.914 36.216,-20.557 56.695,-24.096 3.778,-0.652 7.616,-0.884 11.424,-1.326 7.228,-3.944 14.672,-8.198 19.85,-14.754 6.403,-9.284 5.762,-19.529 25.29,-16.968 19.528,2.562 33.294,0.961 38.416,8.324 5.122,7.363 14.406,22.409 10.884,40.657 -1.365,7.686 -0.858,4.613 -1.596,9.205 22.016,15.185 38.528,36.808 47.501,61.927 22.917,67.166 -30.597,132.041 -96.718,154.602 -66.121,22.56 -138.301,-13.601 -161.218,-80.768 z m 119.919,-162.491 -0.833,0.094 12.983,-0.199 c -3.499,0.046 -1.549,0.026 -5.852,0.053 -1.687,0.005 -3.374,-0.031 -5.061,-0.04 z"
         id="path10852" /></g></g><g
     display="none"
     id="Draft"
     style="display:none"><path
       id="path10855"
       d="m 284.085,497.475 c -43.671,7.764 -61.771,47.921 -61.771,88.445 0,68.795 114.53,130.394 176.889,110.907 18.436,-5.761 39.475,-26.659 49.136,-42.117 40.579,-64.926 -0.191,-158.703 -71.598,-182.505 -37.448,-12.483 -76.911,1.877 -109.503,19.654"
       inkscape:connector-curvature="0"
       style="fill-opacity:0;stroke:#000000;stroke-width:1" /><path
       id="path10857"
       d="m 271.45,668.749 c -16.688,-17.219 -33.564,6.804 -42.116,21.058 -29.234,48.723 25.119,62.586 47.732,51.944 41.553,-19.554 50.446,-99.676 7.019,-99.676"
       inkscape:connector-curvature="0"
       style="fill-opacity:0;stroke:#000000;stroke-width:1" /><path
       id="path10859"
       d="m 369.722,665.941 c -5.148,1.872 -10.712,2.856 -15.443,5.616 -19.724,11.505 -14.417,77.699 32.289,87.041 2.6,0.52 11.218,2.721 14.039,1.404 43.376,-20.242 35.104,-76.559 -2.807,-96.868 -16.182,-8.669 -32.451,-17.441 -50.54,-21.058"
       inkscape:connector-curvature="0"
       style="fill-opacity:0;stroke:#000000;stroke-width:1" /><path
       id="path10861"
       d="m 449.743,629.441 c -8.1,15.363 13.605,14.609 23.866,14.039 16.78,-0.932 43.874,-61.269 22.463,-67.386 -23.337,-6.668 -24.881,37.025 -7.02,43.52 26.182,9.521 65.225,-14.365 47.732,-43.52 -5.879,-9.798 -25.688,-8.841 -9.827,7.019"
       inkscape:connector-curvature="0"
       style="fill-opacity:0;stroke:#000000;stroke-width:1" /><path
       id="path10863"
       d="m 289.701,562.054 c 1.346,10.093 28.326,106.696 22.462,106.696"
       inkscape:connector-curvature="0"
       style="fill-opacity:0;stroke:#000000;stroke-width:1" /><path
       id="path10865"
       d="m 281.277,571.882 c 2.256,-21.692 84.37,-43.384 96.868,-30.886 4.296,4.296 20.975,73.078 22.462,84.233 0.039,0.29 8.156,24.134 5.616,26.674 -15.377,15.376 -92.369,17.675 -98.272,29.482"
       inkscape:connector-curvature="0"
       style="fill-opacity:0;stroke:#000000;stroke-width:1" /><path
       id="path10867"
       d="m 420.262,543.804 c -24.699,14.697 -81.426,22.656 -81.426,58.963 0,3.294 -0.77,8.332 1.404,11.231 14.708,19.61 94.134,-18.323 103.888,-28.078"
       inkscape:connector-curvature="0"
       style="fill-opacity:0;stroke:#000000;stroke-width:1" /><path
       id="path10869"
       d="m 191.429,501.687 c 12.216,1.912 22.984,9.778 30.885,19.655 42.577,53.221 -7.734,86.731 -40.712,63.175 -17.41,-12.436 -27.315,-32.809 -33.694,-51.944 -0.325,-0.977 -8.441,-18.245 -8.423,-18.251 4.741,-1.58 17.604,9.07 22.462,4.212 8.131,-8.131 2.042,-33.374 40.713,-14.039"
       inkscape:connector-curvature="0"
       style="fill-opacity:0;stroke:#000000;stroke-width:1" /><path
       id="path10871"
       d="m 322.239,283.214 c 7.443,-3.586 15.375,-6.484 20.813,-13.009 4.345,-5.214 8.639,-11.421 13.875,-15.61 4.293,-3.434 16.267,0.413 20.814,0.868 43.939,4.394 37.762,34.779 33.821,70.244 -0.533,4.802 -2.946,17.23 -10.407,14.743 -10.606,-3.535 4.394,-44.835 -29.485,-70.245"
       inkscape:connector-curvature="0"
       style="fill-opacity:0;stroke:#000000;stroke-width:1" /><path
       id="path10873"
       d="m 369.936,279.744 c 4.893,19.219 17.538,24.99 32.087,34.689"
       inkscape:connector-curvature="0"
       style="fill-opacity:0;stroke:#000000;stroke-width:1" /><path
       id="path10875"
       d="m 252.861,312.699 c -10.724,0.119 -36.137,-18.962 -46.83,-10.407 -11.983,9.586 -19.012,62.541 -10.407,75.448"
       inkscape:connector-curvature="0"
       style="fill-opacity:0;stroke:#000000;stroke-width:1" /><path
       id="path10877"
       d="m 318.769,487.01 c 22.73,-2.453 36.51,-22.678 48.564,-40.759"
       inkscape:connector-curvature="0"
       style="fill-opacity:0;stroke:#000000;stroke-width:1" /><path
       id="path10879"
       d="m 363.865,441.048 c 31.587,12.543 26.145,84.152 -15.61,73.713 -15.893,-3.973 -29.691,-19.946 -46.83,-19.946"
       inkscape:connector-curvature="0"
       style="fill-opacity:0;stroke:#000000;stroke-width:1" /><path
       id="path10881"
       d="m 328.309,526.036 c 3.403,-17.219 41.636,-13.009 56.369,-13.009"
       inkscape:connector-curvature="0"
       style="fill-opacity:0;stroke:#000000;stroke-width:1" /><path
       id="path10883"
       d="m 246.79,313.566 c -13.198,-4.751 -36.881,-23.335 -43.361,-1.734 -1.874,6.246 -3.957,12.304 -2.602,19.079 1.848,9.237 12.392,10.52 8.673,21.68 -4.719,14.154 -30.04,16.55 -23.415,36.423"
       inkscape:connector-curvature="0"
       style="fill-opacity:0;stroke:#000000;stroke-width:1" /><path
       id="path10885"
       d="m 209.5,314.433 c 10.528,12.443 10.407,32.46 10.407,48.564"
       inkscape:connector-curvature="0"
       style="fill-opacity:0;stroke:#000000;stroke-width:1" /><path
       id="path10887"
       d="m 413.297,424.571 c -6.852,0.325 -12.908,-2.894 -19.079,1.734 -16.076,12.057 10.74,50.055 32.087,25.149 13.551,-15.808 -17.972,-46.322 -28.618,-30.352"
       inkscape:connector-curvature="0"
       style="fill-opacity:0;stroke:#000000;stroke-width:1" /><path
       id="path10889"
       d="m 236.384,447.985 c -7.695,-0.703 -15.521,7.958 -16.478,15.61 -1.128,9.027 10.814,29.079 21.681,18.212 15.621,-15.621 -2.197,-41.395 -24.282,-30.353"
       inkscape:connector-curvature="0"
       style="fill-opacity:0;stroke:#000000;stroke-width:1" /></g></g></svg>