<?xml version="1.0" encoding="utf-8"?>
<!-- Generator: Adobe Illustrator 16.0.0, SVG Export Plug-In . SVG Version: 6.00 Build 0)  -->
<!DOCTYPE svg PUBLIC "-//W3C//DTD SVG 1.1//EN" "http://www.w3.org/Graphics/SVG/1.1/DTD/svg11.dtd">
<svg version="1.1" id="Layer_1" xmlns="http://www.w3.org/2000/svg" xmlns:xlink="http://www.w3.org/1999/xlink" x="0px" y="0px"
	 width="500px" height="500px" viewBox="0 0 500 500" enable-background="new 0 0 500 500" xml:space="preserve">
<rect fill="#A97C50" stroke="#000000" stroke-miterlimit="10" width="500" height="500"/>
<g id="Layer_1_1_">
	<g opacity="0.8">
		<path fill="#FFFFFF" d="M289.598,371.131c-4.168,24.594-16.158,45.925-35.947,63.972c-21.575,19.301-44.267,26.943-68.104,22.904
			c-27.238-4.617-48.797-24.437-64.66-59.414c-2.832-6.328-3.656-12.892-2.5-19.696c1.537-9.08,6.254-16.268,14.154-21.539
			c7.901-5.279,16.393-7.142,25.478-5.611c6.808,1.159,13.322,8.688,19.524,22.574c5.142,10.997,12.064,17.23,20.772,18.701
			c13.233,2.257,21.905-8.74,26.022-32.95l38.478-227.019c1.6-9.454,6.041-16.671,13.307-21.683c7.273-4.99,15.631-6.688,25.1-5.093
			c9.826,1.676,17.164,6.025,22.008,13.078c4.836,7.05,6.416,15.5,4.754,25.337L289.598,371.131z M381.57,68.667
			c-1.742,10.21-6.805,18.317-15.203,24.293c-8.412,5.963-17.721,8.086-27.941,6.358c-10.211-1.73-18.314-6.814-24.281-15.222
			c-5.971-8.388-8.088-17.708-6.354-27.927c1.729-10.21,6.777-18.206,15.164-23.993c8.367-5.777,17.676-7.807,27.875-6.077
			c10.225,1.729,18.312,6.802,24.283,15.211C381.082,49.717,383.246,58.851,381.57,68.667z"/>
	</g>
</g>
</svg>
