<?xml version="1.0" encoding="utf-8"?>
<!-- Generator: Adobe Illustrator 16.0.0, SVG Export Plug-In . SVG Version: 6.00 Build 0)  -->
<!DOCTYPE svg PUBLIC "-//W3C//DTD SVG 1.1//EN" "http://www.w3.org/Graphics/SVG/1.1/DTD/svg11.dtd">
<svg version="1.1" id="Layer_1" xmlns="http://www.w3.org/2000/svg" xmlns:xlink="http://www.w3.org/1999/xlink" x="0px" y="0px"
	 width="768px" height="1004px" viewBox="0 0 768 1004" enable-background="new 0 0 768 1004" xml:space="preserve">
<rect fill="#A97C50" stroke="#000000" stroke-miterlimit="10" width="768" height="1004"/>
<g id="Layer_1_1_">
	<g opacity="0.8">
		<path fill="#FFFFFF" d="M117.762,553.831c-2.081,12.279-8.068,22.93-17.95,31.941c-10.772,9.638-22.103,13.459-34.005,11.44
			c-13.601-2.309-24.366-12.205-32.288-29.668c-1.412-3.156-1.824-6.44-1.248-9.838c0.769-4.534,3.123-8.119,7.068-10.752
			c3.945-2.637,8.184-3.567,12.723-2.801c3.398,0.577,6.65,4.337,9.75,11.271c2.565,5.487,6.021,8.601,10.37,9.336
			c6.607,1.13,10.938-4.363,12.994-16.451l19.214-113.358c0.798-4.721,3.017-8.329,6.643-10.829
			c3.633-2.491,7.806-3.339,12.534-2.539c4.905,0.832,8.568,3.007,10.989,6.526c2.415,3.521,3.204,7.738,2.374,12.651
			L117.762,553.831z M163.686,402.803c-0.868,5.099-3.396,9.144-7.591,12.125c-4.202,2.981-8.848,4.041-13.953,3.178
			c-5.099-0.864-9.143-3.4-12.124-7.599c-2.982-4.192-4.038-8.848-3.172-13.946c0.863-5.098,3.384-9.091,7.572-11.98
			c4.178-2.886,8.825-3.896,13.919-3.036c5.106,0.866,9.144,3.399,12.125,7.6C163.443,393.335,164.523,397.896,163.686,402.803z"/>
		<path fill="#FFFFFF" d="M261.68,582.33c0,4.604-1.631,8.625-4.89,12.074c-3.259,3.45-7.185,5.175-11.782,5.175
			c-7.093,0-14.854-5.843-23.281-17.534c-12.264,9.777-25.108,14.659-38.515,14.659c-21.083,0-35.261-11.884-42.54-35.639
			c-1.729-5.558-2.589-11.886-2.589-18.974c0-18.971,5.464-41.578,16.381-67.832c2.877-6.901,7.761-10.354,14.662-10.354
			c4.598,0,8.619,1.54,12.069,4.603c3.446,3.073,5.173,6.898,5.173,11.5c0,2.298-0.481,4.601-1.434,6.898
			c-9.197,22.23-13.798,40.626-13.798,55.185c0,3.646,0.381,6.712,1.147,9.198c2.684,8.814,7.186,13.22,13.508,13.22
			c7.281,0,15.137-5.076,23.571-15.227c-0.387-3.263-0.572-6.712-0.572-10.355c0-14.178,4.121-35.163,12.357-62.949
			c2.299-7.854,7.376-11.784,15.234-11.784c4.787,0,8.859,1.485,12.215,4.454c3.35,2.972,5.031,6.85,5.031,11.642
			c0,1.725-0.294,3.548-0.865,5.458c-7.477,24.34-11.208,41.486-11.208,51.454c0,14.371,4.601,25.203,13.796,32.482
			C259.568,573.135,261.68,577.35,261.68,582.33z"/>
		<path fill="#FFFFFF" d="M439.388,539.843c0.435,4.766-0.746,8.865-3.512,12.294c-2.766,3.417-6.634,5.356-11.599,5.805
			c-4.768,0.425-8.819-0.793-12.16-3.666c-3.341-2.88-5.222-6.697-5.658-11.47l-7.122-79.009
			c-0.729-8.018-4.718-11.695-11.971-11.039c-5.532,0.495-10.118,5.147-13.743,13.935c-2.991,7.393-4.2,14.23-3.633,20.527
			l4.649,51.526c0.432,4.772-0.741,8.87-3.51,12.296c-2.769,3.425-6.636,5.361-11.593,5.815c-4.771,0.428-8.829-0.797-12.168-3.669
			c-3.339-2.875-5.222-6.687-5.651-11.468l-5.067-56.106c-0.412-4.578-2.965-8.864-7.656-12.869
			c-4.691-3.996-9.294-5.512-13.828-4.522c-3.025,0.661-5.819,2.69-8.398,6.093c-2.58,3.41-3.73,6.643-3.454,9.694l6.204,68.705
			c0.425,4.778-0.742,8.869-3.511,12.301c-2.771,3.419-6.635,5.355-11.596,5.805c-4.771,0.433-8.826-0.785-12.163-3.658
			c-3.336-2.879-5.22-6.704-5.654-11.473l-9.356-103.631c-0.435-4.771,0.743-8.819,3.521-12.15c2.776-3.327,6.553-5.212,11.326-5.64
			c1.906-0.173,7.259,2.621,16.045,8.366c6.301-4.795,11.549-7.391,15.752-7.772c12.972-1.171,25.443,3.668,37.388,14.518
			c9.771-17.432,22.586-26.852,38.428-28.285c12.208-1.099,22.233,2.318,30.075,10.273c7.208,7.427,11.401,17.635,12.573,30.61
			L439.388,539.843z"/>
		<path fill="#FFFFFF" d="M565.213,534.576c0,20.31-5.27,36.698-15.809,49.148c-11.311,13.216-26.83,19.834-46.569,19.834
			c-11.309,0-21.078-2.399-29.312-7.183c-7.477,8.432-13.901,12.646-19.267,12.646c-4.407,0-8.096-1.289-11.065-3.881
			c-2.976-2.592-4.455-5.982-4.455-10.204c0-6.512,3.739-13.791,11.215-21.84V428.796c0-4.789,1.532-8.715,4.596-11.786
			c3.062-3.065,6.992-4.603,11.78-4.603c4.79,0,8.771,1.538,11.931,4.603c3.164,3.066,4.748,6.993,4.748,11.786v55.184
			c13.02-10.151,26.343-15.231,39.953-15.231C551.128,468.751,565.213,490.693,565.213,534.576z M532.156,534.576
			c0-7.479-1.249-13.991-3.732-19.548c-3.271-7.474-8.154-11.208-14.667-11.208c-8.816,0-17.538,6.422-26.153,19.256
			c-1.538,2.299-3.068,4.307-4.599,6.036v39.377c6.701,1.147,12.447,1.733,17.24,1.733
			C521.521,570.21,532.156,558.331,532.156,534.576z"/>
		<path fill="#FFFFFF" d="M626.431,574.657c0,4.216-1.435,7.71-4.309,10.495c-2.875,2.771-6.422,4.167-10.638,4.167
			c-2.683,0-5.271-0.578-7.761-1.725c-10.348-4.602-16.093-7.289-17.249-8.061c-7.465-4.591-11.203-9.765-11.203-15.509
			l0.287-165.279c0-4.785,1.532-8.714,4.599-11.782c3.068-3.067,6.991-4.603,11.792-4.603c4.78,0,8.762,1.536,11.918,4.603
			c3.167,3.062,4.751,6.992,4.751,11.782l-0.29,154.642C620.395,558.766,626.431,565.846,626.431,574.657z"/>
		<path fill="#FFFFFF" d="M736.518,435.879c0,0.571-0.188,1.819-0.572,3.738c-5.565,27.594-15.522,59.787-29.896,96.574
			c-11.12,28.169-22.513,53.758-34.2,76.748c-3.065,6.133-7.768,9.2-14.083,9.2c-4.602,0-8.624-1.536-12.072-4.604
			c-3.45-3.068-5.177-6.898-5.177-11.49c0-2.691,0.671-5.369,2.018-8.047c9.192-17.829,18.292-37.849,27.308-60.076
			c-16.099-11.881-27.599-22.514-34.497-31.91c-8.434-11.111-14.938-26.051-19.544-44.838c-0.384-1.533-0.568-3.063-0.568-4.602
			c0-4.783,1.677-8.665,5.03-11.638c3.351-2.973,7.42-4.453,12.213-4.453c8.237,0,13.411,4.213,15.526,12.646
			c3.061,12.842,6.898,22.757,11.487,29.75c4.607,6.998,12.174,14.613,22.713,22.852c10.353-27.979,17.535-52.119,21.56-72.435
			c1.721-9.006,6.991-13.51,15.81-13.51c4.593,0,8.572,1.539,11.926,4.6C734.839,427.448,736.518,431.277,736.518,435.879z"/>
	</g>
</g>
</svg>
