<?xml version="1.0" encoding="utf-8"?>
<!-- Generator: Adobe Illustrator 16.0.0, SVG Export Plug-In . SVG Version: 6.00 Build 0)  -->
<!DOCTYPE svg PUBLIC "-//W3C//DTD SVG 1.1//EN" "http://www.w3.org/Graphics/SVG/1.1/DTD/svg11.dtd">
<svg version="1.1" xmlns="http://www.w3.org/2000/svg" xmlns:xlink="http://www.w3.org/1999/xlink" x="0px" y="0px" width="320px"
	 height="480px" viewBox="0 0 320 480" enable-background="new 0 0 320 480" xml:space="preserve">
<g id="iphone">
	<rect fill="#A97C50" stroke="#000000" stroke-miterlimit="10" width="320" height="480"/>
</g>
<g id="Layer_2">
	<g id="Layer_1_1_">
		<g opacity="0.8">
			<path fill="#FFFFFF" d="M56.535,250.713c-0.806,4.756-3.125,8.881-6.953,12.371c-4.172,3.733-8.561,5.213-13.171,4.432
				c-5.268-0.895-9.438-4.728-12.506-11.491c-0.547-1.223-0.707-2.494-0.483-3.811c0.298-1.756,1.209-3.145,2.738-4.164
				c1.528-1.021,3.17-1.382,4.928-1.085c1.316,0.224,2.576,1.68,3.776,4.365c0.994,2.125,2.332,3.331,4.017,3.616
				c2.559,0.438,4.236-1.69,5.033-6.372l7.442-43.906c0.309-1.829,1.168-3.226,2.573-4.194c1.407-0.965,3.023-1.293,4.854-0.983
				c1.9,0.322,3.319,1.165,4.256,2.528c0.935,1.364,1.241,2.997,0.919,4.9L56.535,250.713z M74.322,192.217
				c-0.336,1.975-1.315,3.542-2.94,4.696c-1.627,1.155-3.427,1.565-5.404,1.23c-1.975-0.334-3.541-1.317-4.696-2.943
				c-1.155-1.624-1.564-3.427-1.229-5.402c0.334-1.975,1.311-3.521,2.933-4.64c1.618-1.118,3.418-1.509,5.391-1.176
				c1.978,0.335,3.542,1.316,4.696,2.943C74.228,188.55,74.646,190.316,74.322,192.217z"/>
			<path fill="#FFFFFF" d="M112.277,261.751c0,1.783-0.632,3.341-1.894,4.677s-2.783,2.004-4.563,2.004
				c-2.747,0-5.753-2.263-9.017-6.791c-4.75,3.787-9.725,5.678-14.917,5.678c-8.166,0-13.657-4.603-16.477-13.804
				c-0.669-2.152-1.003-4.604-1.003-7.349c0-7.347,2.116-16.104,6.345-26.272c1.114-2.673,3.006-4.01,5.679-4.01
				c1.781,0,3.338,0.597,4.675,1.783c1.335,1.19,2.003,2.672,2.003,4.454c0,0.89-0.186,1.782-0.555,2.672
				c-3.562,8.61-5.344,15.735-5.344,21.374c0,1.412,0.147,2.6,0.444,3.562c1.039,3.414,2.783,5.12,5.232,5.12
				c2.82,0,5.863-1.966,9.129-5.897c-0.15-1.264-0.222-2.6-0.222-4.011c0-5.491,1.596-13.619,4.786-24.381
				c0.89-3.042,2.857-4.564,5.9-4.564c1.854,0,3.431,0.575,4.731,1.725c1.297,1.151,1.949,2.653,1.949,4.509
				c0,0.668-0.114,1.374-0.335,2.114c-2.896,9.428-4.341,16.068-4.341,19.929c0,5.566,1.782,9.762,5.343,12.581
				C111.459,258.189,112.277,259.822,112.277,261.751z"/>
			<path fill="#FFFFFF" d="M181.106,245.295c0.168,1.846-0.289,3.434-1.36,4.762c-1.071,1.323-2.569,2.074-4.492,2.248
				c-1.847,0.165-3.416-0.307-4.71-1.42c-1.294-1.115-2.022-2.594-2.191-4.442l-2.759-30.602c-0.282-3.105-1.827-4.53-4.636-4.275
				c-2.143,0.192-3.919,1.994-5.323,5.397c-1.158,2.863-1.626,5.512-1.407,7.951l1.8,19.957c0.167,1.849-0.287,3.436-1.359,4.763
				c-1.072,1.326-2.57,2.076-4.49,2.252c-1.848,0.166-3.419-0.309-4.713-1.421c-1.293-1.113-2.022-2.59-2.189-4.441l-1.962-21.731
				c-0.16-1.773-1.148-3.433-2.965-4.984c-1.817-1.548-3.6-2.135-5.356-1.751c-1.172,0.256-2.254,1.042-3.253,2.36
				c-0.999,1.321-1.445,2.573-1.337,3.755l2.403,26.61c0.165,1.851-0.288,3.436-1.36,4.765c-1.073,1.324-2.57,2.074-4.491,2.248
				c-1.848,0.168-3.418-0.304-4.711-1.417c-1.292-1.115-2.022-2.597-2.19-4.443l-3.624-40.138c-0.168-1.848,0.288-3.416,1.364-4.706
				c1.075-1.289,2.538-2.019,4.387-2.185c0.738-0.067,2.812,1.015,6.215,3.24c2.44-1.857,4.473-2.863,6.101-3.01
				c5.024-0.454,9.854,1.421,14.481,5.623c3.784-6.751,8.748-10.4,14.884-10.955c4.729-0.426,8.611,0.898,11.648,3.979
				c2.792,2.876,4.416,6.83,4.87,11.855L181.106,245.295z"/>
			<path fill="#FFFFFF" d="M229.841,243.255c0,7.866-2.041,14.214-6.123,19.036c-4.381,5.119-10.392,7.683-18.037,7.683
				c-4.38,0-8.164-0.93-11.354-2.782c-2.896,3.266-5.384,4.897-7.462,4.897c-1.707,0-3.136-0.499-4.286-1.503
				c-1.152-1.004-1.726-2.317-1.726-3.952c0-2.522,1.448-5.342,4.344-8.459v-55.891c0-1.854,0.594-3.375,1.78-4.565
				c1.186-1.187,2.708-1.783,4.562-1.783c1.855,0,3.397,0.596,4.621,1.783c1.226,1.188,1.839,2.708,1.839,4.565v21.374
				c5.043-3.932,10.203-5.899,15.475-5.899C224.386,217.76,229.841,226.258,229.841,243.255z M217.037,243.255
				c0-2.896-0.483-5.419-1.445-7.572c-1.267-2.894-3.158-4.34-5.681-4.34c-3.415,0-6.793,2.488-10.13,7.458
				c-0.596,0.891-1.188,1.667-1.781,2.337v15.252c2.596,0.444,4.821,0.671,6.678,0.671
				C212.918,257.057,217.037,252.456,217.037,243.255z"/>
			<path fill="#FFFFFF" d="M253.552,258.779c0,1.633-0.556,2.986-1.669,4.064c-1.113,1.074-2.487,1.614-4.12,1.614
				c-1.039,0-2.042-0.224-3.006-0.668c-4.008-1.782-6.233-2.823-6.681-3.122c-2.892-1.778-4.34-3.782-4.34-6.007l0.111-64.016
				c0-1.854,0.594-3.375,1.781-4.563c1.188-1.188,2.708-1.783,4.567-1.783c1.852,0,3.394,0.595,4.616,1.783
				c1.227,1.186,1.84,2.708,1.84,4.563l-0.112,59.896C251.214,252.624,253.552,255.366,253.552,258.779z"/>
			<path fill="#FFFFFF" d="M296.19,205.028c0,0.221-0.073,0.705-0.222,1.448c-2.155,10.688-6.012,23.157-11.579,37.405
				c-4.307,10.91-8.72,20.821-13.246,29.726c-1.188,2.376-3.009,3.563-5.455,3.563c-1.782,0-3.34-0.595-4.676-1.783
				s-2.005-2.672-2.005-4.45c0-1.043,0.26-2.08,0.781-3.117c3.561-6.905,7.085-14.659,10.577-23.269
				c-6.235-4.602-10.689-8.72-13.361-12.359c-3.267-4.304-5.786-10.09-7.57-17.367c-0.148-0.594-0.22-1.187-0.22-1.782
				c0-1.853,0.649-3.356,1.948-4.508c1.298-1.151,2.874-1.725,4.73-1.725c3.19,0,5.194,1.632,6.014,4.898
				c1.186,4.974,2.672,8.814,4.449,11.523c1.784,2.71,4.715,5.66,8.797,8.851c4.01-10.837,6.792-20.187,8.351-28.056
				c0.666-3.488,2.708-5.233,6.123-5.233c1.779,0,3.32,0.596,4.619,1.782C295.54,201.762,296.19,203.245,296.19,205.028z"/>
		</g>
	</g>
</g>
</svg>
