<?xml version="1.0" encoding="UTF-8" standalone="no"?>
<!-- Generator: Adobe Illustrator 16.0.0, SVG Export Plug-In . SVG Version: 6.00 Build 0)  -->

<svg
   xmlns:dc="http://purl.org/dc/elements/1.1/"
   xmlns:cc="http://creativecommons.org/ns#"
   xmlns:rdf="http://www.w3.org/1999/02/22-rdf-syntax-ns#"
   xmlns:svg="http://www.w3.org/2000/svg"
   xmlns="http://www.w3.org/2000/svg"
   xmlns:sodipodi="http://sodipodi.sourceforge.net/DTD/sodipodi-0.dtd"
   xmlns:inkscape="http://www.inkscape.org/namespaces/inkscape"
   version="1.1"
   id="Layer_1"
   x="0px"
   y="0px"
   width="500px"
   height="500px"
   viewBox="0 0 500 500"
   enable-background="new 0 0 500 500"
   xml:space="preserve"
   inkscape:version="0.48.2 r9819"
   sodipodi:docname="jumbly_icon.svg"><metadata
   id="metadata4621"><rdf:RDF><cc:Work
       rdf:about=""><dc:format>image/svg+xml</dc:format><dc:type
         rdf:resource="http://purl.org/dc/dcmitype/StillImage" /></cc:Work></rdf:RDF></metadata><defs
   id="defs4619" /><sodipodi:namedview
   pagecolor="#ffffff"
   bordercolor="#666666"
   borderopacity="1"
   objecttolerance="10"
   gridtolerance="10"
   guidetolerance="10"
   inkscape:pageopacity="0"
   inkscape:pageshadow="2"
   inkscape:window-width="965"
   inkscape:window-height="721"
   id="namedview4617"
   showgrid="false"
   inkscape:zoom="0.472"
   inkscape:cx="138.80309"
   inkscape:cy="250"
   inkscape:window-x="277"
   inkscape:window-y="8"
   inkscape:window-maximized="0"
   inkscape:current-layer="g5355" />
<rect
   fill="#A97C50"
   stroke="#000000"
   stroke-miterlimit="10"
   width="500"
   height="500"
   id="rect4610" />
<g
   id="Layer_1_1_">
	<g
   opacity="0.8"
   id="g4613">
		<path
   fill="#FFFFFF"
   d="M289.598,371.131c-4.168,24.594-16.158,45.925-35.947,63.972c-21.575,19.301-44.267,26.943-68.104,22.904    c-27.238-4.617-48.797-24.437-64.66-59.414c-2.832-6.328-3.656-12.892-2.5-19.696c1.537-9.08,6.254-16.268,14.154-21.539    c7.901-5.279,16.393-7.142,25.478-5.611c6.808,1.159,13.322,8.688,19.524,22.574c5.142,10.997,12.064,17.23,20.772,18.701    c13.233,2.257,21.905-8.74,26.022-32.95l38.478-227.019c1.6-9.454,6.041-16.671,13.307-21.683c7.273-4.99,15.631-6.688,25.1-5.093    c9.826,1.676,17.164,6.025,22.008,13.078c4.836,7.05,6.416,15.5,4.754,25.337L289.598,371.131z M381.57,68.667    c-1.742,10.21-6.805,18.317-15.203,24.293c-8.412,5.963-17.721,8.086-27.941,6.358c-10.211-1.73-18.314-6.814-24.281-15.222    c-5.971-8.388-8.088-17.708-6.354-27.927c1.729-10.21,6.777-18.206,15.164-23.993c8.367-5.777,17.676-7.807,27.875-6.077    c10.225,1.729,18.312,6.802,24.283,15.211C381.082,49.717,383.246,58.851,381.57,68.667z"
   id="path4615" />
	</g>
</g>
<g
   id="g5355"
   transform="translate(-690.38983,-259.66102)"><g
     display="none"
     id="Legs"
     style="display:none"><path
       id="path5014"
       d="m 391.013,619.886 c 37.584,-3.384 71.585,32.057 75.943,79.16 4.359,47.103 -24.178,38.472 -61.763,41.856 -37.584,3.383 -69.983,17.5 -74.341,-29.603 -4.359,-47.102 22.576,-88.03 60.161,-91.413 z"
       inkscape:connector-curvature="0"
       style="fill:#957b4b" /><g
       id="g5016"><path
         id="path5018"
         d="m 286.215,655.169 c 24.681,1.981 42.57,30.505 39.957,63.71 -2.614,33.205 -20.063,23.925 -44.744,21.944 -24.682,-1.982 -47.25,4.086 -44.636,-29.119 2.614,-33.204 24.742,-58.516 49.423,-56.535 z"
         inkscape:connector-curvature="0"
         style="fill:#957b4b" /><path
         id="path5020"
         d="m 286.215,655.169 c 24.681,1.981 42.57,30.505 39.957,63.71 -2.614,33.205 -20.063,23.925 -44.744,21.944 -24.682,-1.982 -47.25,4.086 -44.636,-29.119 2.614,-33.204 24.742,-58.516 49.423,-56.535 z"
         inkscape:connector-curvature="0"
         style="fill-opacity:0;stroke:#54382a;stroke-width:2.2249999" /></g><path
       id="path5022"
       d="m 356.671,745.114 c -7.766,-0.773 -14.836,-4.264 -19.173,-10.939 -4.413,-6.79 -5.826,-14.977 -6.646,-22.876 -4.359,-47.102 22.576,-88.03 60.16,-91.413 5.772,-0.51 11.6,-0.118 17.256,1.154 30.787,6.924 51.881,37.487 57.073,67.207 -6.92,-1.64 -14.006,-1.775 -21.07,-1.931 -6.736,0.11 -13.455,0.843 -20.059,2.168 -24.403,4.897 -49.578,18.375 -61.933,40.84 -2.682,4.876 -2.84,6.039 -4.64,11.241 z"
       inkscape:connector-curvature="0"
       style="fill:#7a513d" /><path
       id="path5024"
       d="m 391.513,620.386 c 37.584,-3.384 71.585,32.057 75.943,79.16 4.359,47.103 -24.178,38.472 -61.763,41.856 -37.584,3.383 -69.983,17.5 -74.341,-29.603 -4.359,-47.102 22.576,-88.03 60.161,-91.413 z"
       inkscape:connector-curvature="0"
       style="fill-opacity:0;stroke:#54312a;stroke-width:3.27999997" /><path
       id="path5026"
       d="m 306.917,743.013 -5.197,-0.214 c 0.354,-3.511 0.259,-1.863 0.336,-4.941 0,-22.962 -18.502,-41.576 -41.326,-41.576 -8.449,-0.038 -16.501,2.67 -23.447,7.391 3.348,-21.301 18.257,-46.005 41.572,-48.858 3.21,-0.392 4.104,-0.273 6.86,-0.146 24.681,1.981 42.571,30.505 39.957,63.71 -0.799,7.268 -1.585,16.142 -7.646,21.204 -2.372,1.982 -5.001,2.608 -7.941,3.21 z"
       inkscape:connector-curvature="0"
       style="fill:#7a513d" /><path
       id="path5028"
       d="m 286.215,655.169 c 24.681,1.981 42.57,30.505 39.957,63.71 -2.614,33.205 -20.063,23.925 -44.744,21.944 -24.682,-1.982 -47.25,4.086 -44.636,-29.119 2.614,-33.204 24.742,-58.516 49.423,-56.535 z"
       inkscape:connector-curvature="0"
       style="fill-opacity:0;stroke:#54382a;stroke-width:2.2249999" /></g><g
     id="Face"
     transform="matrix(1.7912469,0,0,1.7912469,348.47789,-201.16967)"><path
       id="path5155"
       d="M 365.996,529.858 C 299.875,552.418 227.696,516.257 204.779,449.09 181.862,381.923 225.878,315.534 292,292.974 c 66.121,-22.56 147.798,15.115 170.715,82.282 22.917,67.167 -30.597,132.042 -96.719,154.602 z"
       inkscape:connector-curvature="0"
       style="fill:#ffded6" /><path
       id="path5157"
       d="m 322.314,536.524 c -10.949,-0.844 -13.676,-0.648 -24.406,-3.091 -38.122,-8.681 -71.47,-35.433 -87.739,-71.058 18.876,36.266 56.214,61.725 96.654,66.847 19.623,2.485 37.234,0.151 55.996,-5.717 66.122,-22.56 114.375,-92.281 91.458,-159.447 -3.337,-9.437 -7.527,-18.696 -13.178,-26.995 9.603,11.212 16.667,24.339 21.616,38.193 22.917,67.167 -30.597,132.042 -96.719,154.602 -10.051,3.791 -20.655,5.062 -31.227,6.38 z"
       inkscape:connector-curvature="0"
       style="fill:#ffbe92" /><path
       id="path5159"
       d="m 384.186,469.497 c -14.358,-8.465 -15.525,-33.093 -2.605,-55.008 12.92,-21.915 35.033,-32.818 49.391,-24.354 14.358,8.465 15.525,33.092 2.605,55.008 -12.92,21.915 -35.033,32.819 -49.391,24.354 z"
       inkscape:connector-curvature="0"
       style="fill:#ffe7ed" /><path
       id="path5161"
       d="m 261.864,333.111 c -7.128,0.175 -14.665,-0.636 -20.517,-5.126 -2.077,-1.593 -2.315,-2.126 -3.947,-4.137 10.016,-9.503 21.709,-17.307 34.081,-23.409 3.87,-1.909 7.86,-3.568 11.845,-5.223 2.709,-1.125 9.529,-3.464 12.375,-4.182 12.79,-3.228 11.197,-2.668 23.36,-4.08 -0.187,1.509 -0.198,3.05 -0.562,4.526 -4.549,18.45 -23.254,32.446 -40.535,38.387 -2.688,0.924 -5.485,1.49 -8.228,2.236 z"
       inkscape:connector-curvature="0"
       style="fill:#ffe7ed" /><path
       id="path5163"
       d="m 252.214,503.427 c -3.268,-0.003 -6.532,-0.404 -9.702,-1.207 -1.232,-0.312 -2.441,-0.713 -3.646,-1.119 -0.459,-0.154 -0.958,-0.264 -1.341,-0.56 -3.243,-2.504 -10.567,-11.304 -11.214,-12.114 -6.325,-7.914 -7.46,-10.343 -12.317,-18.447 -0.778,-1.418 -0.561,-3.301 -0.601,-4.874 0,-21.164 17.381,-38.321 38.821,-38.321 21.441,0 38.822,17.157 38.822,38.321 0,21.164 -17.381,38.321 -38.822,38.321 z"
       inkscape:connector-curvature="0"
       style="fill:#ffe7ed" /></g><g
     id="Ears"
     transform="matrix(1.7912469,0,0,1.7912469,348.47789,-201.16967)"><path
       id="path5166"
       d="m 415.214,313.329 c -15.45,-11.332 -33.849,-19.342 -52.531,-23.516 -11.43,-2.554 -14.207,-2.374 -25.836,-3.319 -13.494,0.207 -8.693,-0.301 -14.477,0.371 7.227,-3.944 14.671,-8.198 19.849,-14.754 6.403,-9.284 5.763,-19.529 25.29,-16.968 19.528,2.562 33.294,0.961 38.416,8.324 5.122,7.363 14.406,22.409 10.885,40.657 l -1.231,6.929 z"
       inkscape:connector-curvature="0"
       style="fill:#ffded6" /><path
       id="path5168"
       d="m 402.277,309.544 c -4.865,3.547 -15.455,-2.026 -23.655,-12.447 -8.199,-10.421 -10.902,-21.745 -6.037,-25.291 4.865,-3.547 15.455,2.026 23.655,12.447 8.199,10.421 10.902,21.745 6.037,25.291 z"
       inkscape:connector-curvature="0"
       style="fill:#ffbe92" /><path
       id="path5170"
       d="m 398.99,310.605 c -2.502,0.036 -4.776,-0.795 -6.951,-1.94 -1.473,-5.775 -3.217,-11.481 -5.328,-17.055 -0.354,-0.936 -1.188,-2.879 -1.725,-3.761 -0.687,-1.128 -1.395,-2.247 -2.197,-3.297 -3.169,-4.147 -7.488,-7.66 -12.012,-10.244 1.167,-2.073 0.491,-1.297 1.808,-2.503 4.865,-3.546 15.456,2.027 23.655,12.448 8.199,10.422 10.902,21.744 6.037,25.291 l -0.977,0.559 z"
       inkscape:connector-curvature="0"
       style="fill:#df9080" /><path
       id="path5172"
       d="m 403.252,341.015 -1.026,-0.054 c -5.57,-1.044 -5.221,-13.228 -5.221,-17.753 0,-4.525 -5.57,-27.674 -9.921,-37.42 -4.351,-9.747 -16.013,-15.839 -16.013,-15.839 l 8.165,-13.608 c 6.8,0.816 16.824,0.497 22.915,3.843 3.285,1.805 5.131,5.099 6.982,8.205 6.521,10.941 10.032,22.968 7.677,35.735 -1.323,7.172 -2.086,26.532 -9.837,34.734 -0.533,0.564 -1.189,0.997 -1.783,1.496 z"
       inkscape:connector-curvature="0"
       style="fill:#ffded6" /><path
       id="path5174"
       d="m 403.252,341.015 c -1.506,0.029 -1.852,-0.25 -2.974,-1.189 l 0.425,-0.145 c 0.595,-0.499 1.25,-0.932 1.783,-1.496 0.458,-0.554 0.981,-1.06 1.373,-1.663 0.836,-1.282 1.643,-2.591 2.3,-3.974 2.881,-6.065 3.928,-12.933 4.857,-19.515 2.389,-16.916 -1.008,6.462 1.063,-8.101 0.155,-1.086 0.518,-2.899 0.617,-3.866 0.366,-3.583 0.501,-5.769 0.203,-9.357 -0.587,-7.082 -2.859,-13.483 -5.954,-19.839 -0.693,-1.423 -1.532,-2.769 -2.299,-4.154 -1.851,-3.107 -3.697,-6.4 -6.982,-8.205 -1.998,-1.17 -4.248,-1.626 -6.477,-2.111 3.801,0.256 7.544,1.096 10.965,2.784 3.284,1.805 5.13,5.099 6.982,8.206 5.12,8.695 8.622,18.433 8.401,28.633 -0.067,3.057 -0.55,5.637 -0.969,8.583 -2.064,14.513 1.318,-8.758 -1.063,8.1 -0.929,6.582 -1.976,13.45 -4.857,19.515 -0.657,1.383 -1.464,2.692 -2.3,3.974 -0.392,0.603 -0.915,1.109 -1.373,1.663 -0.533,0.564 -1.188,0.997 -1.782,1.496 z"
       inkscape:connector-curvature="0"
       style="fill:#ffbe92" /><path
       id="path5176"
       d="m 402.887,340.65 -1.025,-0.054 c -5.57,-1.044 -5.222,-13.227 -5.222,-17.752 -0.638,-6.639 -2.349,-13.186 -4.079,-19.615 -1.624,-6.038 -3.423,-12.034 -5.842,-17.806 -4.351,-9.747 -16.012,-15.838 -16.012,-15.838 l 0.13,-0.401 c 0,0 13.775,4.922 18.126,14.669 3.758,9.245 6.389,18.952 8.496,28.699 0.61,2.82 1.326,5.808 1.425,8.721 0,4.525 -0.348,16.709 5.221,17.753 1.493,0.078 0.702,0.164 2.353,-0.398 -1.008,0.896 -0.467,0.439 -1.632,1.362 z"
       inkscape:connector-curvature="0"
       style="fill:#736160" /><path
       id="path5178"
       d="m 259.731,312.99 c 0,0 -16.416,-1.459 -25.718,-6.384 -9.302,-4.925 -17.328,-9.12 -25.171,-5.29 -7.842,3.831 -13.132,21.888 -14.591,30.643 -1.459,8.755 -2.554,24.258 -2.554,30.642 0,6.384 4.195,14.227 4.195,14.227 0,0 3.101,-10.944 6.567,-14.956 3.465,-4.013 5.654,-4.743 6.931,-13.315 1.276,-8.573 1.427,-15.491 1.427,-15.491 0,0 4.774,-11.139 5.686,-6.944 0.912,4.195 2.736,20.976 2.736,20.976 l 40.492,-34.108 z"
       inkscape:connector-curvature="0"
       style="fill:#ffded6" /><path
       id="path5180"
       d="m 195.893,376.828 c 0,0 -4.196,-7.843 -4.196,-14.226 0.07,-6.273 0.539,-12.539 1.105,-18.783 0.86,-9.485 2.107,-17.71 5.457,-26.722 1.589,-4.277 3.5,-8.734 6.45,-12.28 0.801,-0.963 1.739,-1.809 2.693,-2.621 0.405,-0.345 0.908,-0.554 1.362,-0.831 l 1.418,14.397 c -0.257,-0.322 -0.167,6.058 -0.436,5.746 0.358,9.139 0.449,11.604 0.118,20.752 -0.147,4.077 -0.463,9.474 -2.315,13.219 -1.237,2.503 -3.251,4.357 -5.09,6.393 -3.466,4.013 -6.566,14.956 -6.566,14.956 z"
       inkscape:connector-curvature="0"
       style="fill:#ffbe92" /><path
       id="path5182"
       d="m 191.697,362.601 c 0.07,-6.272 0.538,-12.539 1.105,-18.783 0.86,-9.485 2.107,-17.71 5.456,-26.722 1.59,-4.277 3.501,-8.734 6.45,-12.28 0.802,-0.963 1.74,-1.809 2.694,-2.621 0.405,-0.344 0.908,-0.554 1.362,-0.831 l 0.487,4.94 -1.171,1.241 c -2.95,3.546 -4.861,8.004 -6.45,12.281 -3.35,9.012 -4.597,17.236 -5.457,26.721 -0.566,6.244 -1.035,12.511 -1.104,18.783 l -3.372,-2.729 z"
       inkscape:connector-curvature="0"
       style="fill:#df9080" /><path
       id="path5184"
       d="m 192.453,368.668 c -1.128,-4.782 -0.84,-2.625 -1.121,-6.431 0,-6.384 1.095,-21.888 2.554,-30.643 1.459,-8.755 6.748,-26.812 14.592,-30.642 7.842,-3.83 15.868,0.365 25.17,5.289 3.862,2.022 8.083,3.2 12.309,4.177 l -0.818,3.119 c 0,0 -23.529,-13.132 -30.278,-11.491 -6.748,1.642 -10.761,3.831 -12.585,9.85 -1.824,6.019 -3.101,14.774 -2.189,19.516 1.157,3.696 5.102,5.75 7.829,8.126 0.579,0.505 1.92,3.047 2.451,3.602 0.009,2.341 0.146,4.994 -0.062,7.322 -0.35,3.899 -3.968,8.047 -5.522,9.351 -0.422,0.354 -3.353,2.843 -3.784,3.153 -2.73,1.769 -5.464,3.533 -8.13,5.397 z"
       inkscape:connector-curvature="0"
       style="fill:#ffe7ed" /></g><g
     id="Blush"
     transform="matrix(1.7912469,0,0,1.7912469,348.47789,-201.16967)"><path
       id="path5187"
       d="m 409.182,460.48 c -11.333,0 -20.519,-8.917 -20.519,-19.916 0,-10.999 9.186,-19.916 20.519,-19.916 11.333,0 20.519,8.917 20.519,19.916 0,10.999 -9.186,19.916 -20.519,19.916 z"
       inkscape:connector-curvature="0"
       style="fill:#ff8080" /><path
       id="path5189"
       d="m 231.749,483.414 c -7.333,0 -13.277,-6.891 -13.277,-15.39 0,-8.499 5.944,-15.39 13.277,-15.39 7.333,0 13.277,6.891 13.277,15.39 0,8.499 -5.944,15.39 -13.277,15.39 z"
       inkscape:connector-curvature="0"
       style="fill:#ff8080" /></g><g
     id="Mouth"
     transform="matrix(1.7912469,0,0,1.7912469,348.47789,-201.16967)"><path
       id="path5192"
       d="m 295.117,488.242 c 0,0 22.094,-1.258 33.561,-4.879 11.466,-3.621 21.004,-12.36 24.022,-20.205 3.017,-7.846 15.443,-20.783 15.443,-20.783 0,0 17.56,13.15 16.437,32.233 -1.123,19.083 -5.164,35.921 -17.287,39.962 -12.124,4.041 -29.635,-1.123 -36.146,-7.409 -6.51,-6.286 -36.03,-18.919 -36.03,-18.919 z"
       inkscape:connector-curvature="0"
       style="fill:#434343" /><path
       id="path5194"
       d="m 319.699,499.881 c -6.137,-3.246 -12.417,-6.212 -18.744,-9.063 -1.937,-0.873 -3.917,-1.671 -5.837,-2.58 l 0.064,0 c 11.242,-0.85 22.617,-1.747 33.496,-4.875 11.467,-3.621 21.005,-12.36 24.023,-20.205 3.017,-7.846 15.442,-20.783 15.442,-20.783 3.963,3.157 7.41,6.982 10.218,11.197 0.741,1.113 1.323,2.325 1.984,3.487 -6.421,7.27 -12.932,14.465 -19.722,21.396 -2.965,3.027 -7.927,8.235 -11.734,10.407 -2.868,1.636 -6.12,2.768 -9.196,3.93 -5.936,2.241 -7.531,2.757 -14.098,5.077 z"
       inkscape:connector-curvature="0"
       style="fill:#ffffff" /><path
       id="path5196"
       d="m 315.437,497.736 c -8.139,-4.095 -3.334,-1.743 -14.483,-6.919 -1.936,-0.873 -3.916,-1.671 -5.836,-2.579 l 0.064,0 c 8.875,-0.715 11.345,-0.807 21.081,-2.182 1.78,-0.252 3.529,-0.688 5.293,-1.032 -3.145,4.586 -1.38,1.738 -4.872,8.792 z"
       inkscape:connector-curvature="0"
       style="fill:#c9c9c9" /><path
       id="path5198"
       d="m 355.792,457.529 c 3.628,-5.42 7.865,-10.426 12.352,-15.154 3.979,3.447 3.641,2.956 7.994,8.114 0.805,0.955 1.462,2.028 2.193,3.042 -2.889,-0.372 -1.257,-0.231 -4.904,-0.306 -3.295,0.241 -4.729,0.238 -8.262,1.13 -2.421,0.611 -4.775,1.462 -7.163,2.193 z"
       inkscape:connector-curvature="0"
       style="fill:#c9c9c9" /><path
       id="path5200"
       d="m 295.617,488.742 c 0,0 22.094,-1.258 33.561,-4.879 11.466,-3.621 21.004,-12.36 24.022,-20.205 3.017,-7.846 15.443,-20.783 15.443,-20.783 0,0 17.56,13.15 16.437,32.233 -1.123,19.083 -5.164,35.921 -17.287,39.962 -12.124,4.041 -29.635,-1.123 -36.146,-7.409 -6.51,-6.286 -36.03,-18.919 -36.03,-18.919 z"
       inkscape:connector-curvature="0"
       style="fill-opacity:0;stroke:#736160;stroke-width:1.5" /><path
       id="path5202"
       d="m 360.013,515.925 c -5.205,0.268 -10.372,-0.395 -15.376,-1.835 -1.58,-0.454 -3.109,-1.074 -4.663,-1.611 l -0.317,-0.151 c 1.392,-3.365 4.05,-6.037 7.134,-7.921 1.29,-0.788 2.704,-1.358 4.101,-1.935 0.691,-0.286 1.432,-0.431 2.148,-0.647 2.691,-0.669 3.351,-0.634 5.546,-0.724 3.134,-5 7.858,-7.304 13.642,-7.603 2.775,-0.029 5.375,0.783 7.828,2.033 0.442,0.225 0.815,0.564 1.223,0.847 -1.386,5.437 -3.908,10.702 -7.985,14.639 -0.838,0.808 -1.82,1.459 -2.8,2.088 -1.727,1.108 -3.589,1.573 -5.533,2.117 z"
       inkscape:connector-curvature="0"
       style="fill:#ff0000" /></g><g
     id="Eyes"
     transform="matrix(1.7912469,0,0,1.7912469,348.47789,-201.16967)"><g
       id="g5205"><path
         id="path5207"
         d="m 343.579,428.903 c -21.984,0 -33.205,-36.405 -33.205,-60.732 0,-24.328 8.38,-39.336 30.365,-39.336 21.985,0 46.563,20.272 46.563,44.6 0,24.327 -21.738,55.468 -43.723,55.468 z"
         inkscape:connector-curvature="0"
         style="fill:#000000" /><path
         id="path5209"
         d="m 343.58,428.903 c -21.985,0 -38.012,-21.026 -38.012,-45.354 0,-24.327 11.949,-50.9 33.933,-50.9 21.985,0 45.517,21.189 45.517,45.517 0,24.327 -19.453,50.737 -41.438,50.737 z"
         inkscape:connector-curvature="0"
         style="fill:#ffffff" /><path
         id="path5211"
         d="m 384.62,383.997 c -1.09,-3.7 -1.227,-4.644 -2.838,-8.176 -5.284,-11.584 -15.481,-20.783 -27.846,-24.132 -3.517,-0.953 -7.055,-1.323 -10.682,-1.42 -10.721,0.049 -21.009,4.304 -28.74,11.718 -3.28,3.146 -5.389,6.208 -7.816,10 l -0.19,0.37 c 1.842,-14.219 8.994,-32.064 23.43,-37.871 3.101,-1.248 6.253,-1.711 9.563,-1.837 21.985,0 45.517,21.19 45.517,45.517 l -0.056,2.286 z"
         inkscape:connector-curvature="0"
         style="fill:#e1e1e1" /><g
         id="g5213"><path
           id="path5215"
           d="m 341.5,428.5 c -17.121,0 -31,-17.461 -31,-39 0,-21.539 13.879,-39 31,-39 17.121,0 31,17.461 31,39 0,21.539 -13.879,39 -31,39 z"
           inkscape:connector-curvature="0"
           style="fill:#000000" /><path
           id="path5217"
           d="m 341.5,428.5 c -17.121,0 -31,-17.461 -31,-39 0,-21.539 13.879,-39 31,-39 17.121,0 31,17.461 31,39 0,21.539 -13.879,39 -31,39 z"
           inkscape:connector-curvature="0"
           style="fill-opacity:0;stroke:#000000;stroke-width:1" /></g><g
         id="g5219"><path
           id="path5221"
           d="m 346.5,423.5 c -11.046,0 -20,-12.536 -20,-28 0,-15.464 8.954,-28 20,-28 11.046,0 20,12.536 20,28 0,15.464 -8.954,28 -20,28 z"
           inkscape:connector-curvature="0"
           style="fill:#8080ff" /><path
           id="path5223"
           d="m 346.5,423.5 c -11.046,0 -20,-12.536 -20,-28 0,-15.464 8.954,-28 20,-28 11.046,0 20,12.536 20,28 0,15.464 -8.954,28 -20,28 z"
           inkscape:connector-curvature="0"
           style="fill-opacity:0;stroke:#000000;stroke-width:1" /></g><g
         id="g5225"><path
           id="path5227"
           d="m 346.037,406.89 c -7.839,0 -14.194,-8.692 -14.194,-19.414 10e-4,-10.722 6.355,-19.414 14.194,-19.414 7.839,0 14.193,8.692 14.193,19.414 0,10.722 -6.354,19.414 -14.193,19.414 z"
           inkscape:connector-curvature="0"
           style="fill:#000000" /><path
           id="path5229"
           d="m 346.037,406.89 c -7.839,0 -14.194,-8.692 -14.194,-19.414 10e-4,-10.722 6.355,-19.414 14.194,-19.414 7.839,0 14.193,8.692 14.193,19.414 0,10.722 -6.354,19.414 -14.193,19.414 z"
           inkscape:connector-curvature="0"
           style="fill-opacity:0;stroke:#000000;stroke-width:1" /></g><path
         id="path5231"
         d="m 333.056,384.529 c -6.081,0 -11.011,-6.757 -11.011,-15.091 0,-8.334 4.93,-15.091 11.011,-15.091 6.082,0 11.013,6.757 11.013,15.091 0,8.334 -4.931,15.091 -11.013,15.091 z"
         inkscape:connector-curvature="0"
         style="fill:#ffffff" /><path
         id="path5233"
         d="m 362.178,340.807 c -0.09,0 -0.163,-0.293 -0.163,-0.653 0,-0.36 0.073,-0.653 0.163,-0.653 0.09,0 0.163,0.293 0.163,0.653 0,0.36 -0.073,0.653 -0.163,0.653 z"
         inkscape:connector-curvature="0"
         style="fill:#ffffff" /><path
         id="path5235"
         d="m 386.551,369.767 c 0,0 0.263,7.675 3.701,9.64 3.438,1.964 8.206,1.516 8.206,1.516 0,0 -5.714,4.187 -8.464,2.615 -2.751,-1.571 -3.013,-3.356 -3.013,-3.356 0,0 -1.039,2.399 3.185,3.873 4.224,1.473 7.919,0.602 7.919,0.602 0,0 -3.752,4.222 -7.779,3.436 -4.028,-0.785 -4.964,-4.421 -4.964,-4.421"
         inkscape:connector-curvature="0"
         style="fill:#000000" /></g><g
       id="g5237"><path
         id="path5239"
         d="m 256.13,430.029 c 19.388,0 29.283,-32.106 29.283,-53.56 0,-21.454 -7.39,-34.69 -26.779,-34.69 -19.388,0 -41.063,17.878 -41.063,39.332 0,21.455 19.171,48.918 38.559,48.918 z"
         inkscape:connector-curvature="0"
         style="fill:#000000" /><path
         id="path5241"
         d="m 256.13,430.029 c 19.388,0 33.522,-18.543 33.522,-39.997 0,-21.454 -10.537,-44.889 -29.925,-44.889 -19.389,0 -40.141,18.687 -40.141,40.141 0,21.454 17.156,44.745 36.544,44.745 z"
         inkscape:connector-curvature="0"
         style="fill:#ffffff" /><path
         id="path5243"
         d="m 219.936,390.426 c 0.962,-3.263 1.082,-4.096 2.503,-7.211 4.66,-10.216 13.652,-18.328 24.557,-21.282 3.102,-0.84 6.222,-1.167 9.421,-1.252 9.455,0.043 18.528,3.796 25.345,10.334 2.893,2.774 4.753,5.475 6.893,8.819 l 0.168,0.326 c -1.625,-12.539 -7.932,-28.277 -20.663,-33.398 -2.735,-1.1 -5.515,-1.509 -8.434,-1.62 -19.388,0 -40.141,18.687 -40.141,40.142 l 0.05,2.015 z"
         inkscape:connector-curvature="0"
         style="fill:#e1e1e1" /><g
         id="g5245"><path
           id="path5247"
           d="m 258.904,429.732 c 15.099,0 27.339,-15.399 27.339,-34.394 0,-18.995 -12.24,-34.394 -27.339,-34.394 -15.099,0 -27.339,15.399 -27.339,34.394 0,18.995 12.24,34.394 27.339,34.394 z"
           inkscape:connector-curvature="0"
           style="fill:#000000" /><path
           id="path5249"
           d="m 258.904,429.732 c 15.099,0 27.339,-15.399 27.339,-34.394 0,-18.995 -12.24,-34.394 -27.339,-34.394 -15.099,0 -27.339,15.399 -27.339,34.394 0,18.995 12.24,34.394 27.339,34.394 z"
           inkscape:connector-curvature="0"
           style="fill-opacity:0;stroke:#000000;stroke-width:0.88200003" /></g><g
         id="g5251"><path
           id="path5253"
           d="m 254.495,425.322 c 9.741,0 17.638,-11.055 17.638,-24.693 0,-13.638 -7.897,-24.693 -17.638,-24.693 -9.741,0 -17.638,11.055 -17.638,24.693 0,13.638 7.897,24.693 17.638,24.693 z"
           inkscape:connector-curvature="0"
           style="fill:#8080ff" /><path
           id="path5255"
           d="m 254.495,425.322 c 9.741,0 17.638,-11.055 17.638,-24.693 0,-13.638 -7.897,-24.693 -17.638,-24.693 -9.741,0 -17.638,11.055 -17.638,24.693 0,13.638 7.897,24.693 17.638,24.693 z"
           inkscape:connector-curvature="0"
           style="fill-opacity:0;stroke:#000000;stroke-width:0.88200003" /></g><g
         id="g5257"><path
           id="path5259"
           d="m 254.903,410.674 c 6.913,0 12.517,-7.665 12.517,-17.121 0,-9.456 -5.604,-17.121 -12.517,-17.121 -6.913,0 -12.517,7.665 -12.517,17.121 0,9.456 5.604,17.121 12.517,17.121 z"
           inkscape:connector-curvature="0"
           style="fill:#000000" /><path
           id="path5261"
           d="m 254.903,410.674 c 6.913,0 12.517,-7.665 12.517,-17.121 0,-9.456 -5.604,-17.121 -12.517,-17.121 -6.913,0 -12.517,7.665 -12.517,17.121 0,9.456 5.604,17.121 12.517,17.121 z"
           inkscape:connector-curvature="0"
           style="fill-opacity:0;stroke:#000000;stroke-width:0.88200003" /></g><path
         id="path5263"
         d="m 247.873,393.313 c 5.364,0 9.712,-5.958 9.712,-13.308 0,-7.35 -4.348,-13.308 -9.712,-13.308 -5.364,0 -9.712,5.958 -9.712,13.308 0,7.35 4.348,13.308 9.712,13.308 z"
         inkscape:connector-curvature="0"
         style="fill:#ffffff" /><path
         id="path5265"
         d="m 239.728,352.336 c 0.079,0 0.144,-0.257 0.144,-0.575 0,-0.318 -0.065,-0.576 -0.144,-0.576 -0.079,0 -0.144,0.258 -0.144,0.576 0,0.318 0.065,0.575 0.144,0.575 z"
         inkscape:connector-curvature="0"
         style="fill:#ffffff" /><path
         id="path5267"
         d="m 218.233,377.876 c 0,0 -0.232,6.77 -3.264,8.502 -3.032,1.733 -7.237,1.337 -7.237,1.337 0,0 5.04,3.693 7.465,2.307 2.426,-1.386 2.657,-2.961 2.657,-2.961 0,0 0.916,2.117 -2.809,3.416 -3.725,1.299 -6.983,0.531 -6.983,0.531 0,0 3.309,3.723 6.86,3.03 3.552,-0.692 4.378,-3.899 4.378,-3.899"
         inkscape:connector-curvature="0"
         style="fill:#000000" /></g></g><g
     id="Nose"
     transform="matrix(1.7912469,0,0,1.7912469,348.47789,-201.16967)"><g
       id="g5270"><path
         id="path5272"
         d="m 309.899,401.846 c 0,0 -15.887,2.166 -28.404,6.981 -12.517,4.814 -26.72,21.905 -23.831,44.291 2.888,22.387 16.369,43.57 39.237,40.2 22.868,-3.37 23.108,-4.814 27.923,-6.74 4.814,-1.926 20.46,-16.609 22.868,-30.571 2.407,-13.961 -2.408,-31.775 -7.703,-38.755 -5.296,-6.981 -19.498,-15.165 -30.09,-15.406 z"
         inkscape:connector-curvature="0"
         style="fill:#ffded6" /><path
         id="path5274"
         d="m 309.899,401.846 c 0,0 -15.887,2.166 -28.404,6.981 -12.517,4.814 -26.72,21.905 -23.831,44.291 2.888,22.387 16.369,43.57 39.237,40.2 22.868,-3.37 23.108,-4.814 27.923,-6.74 4.814,-1.926 20.46,-16.609 22.868,-30.571 2.407,-13.961 -2.408,-31.775 -7.703,-38.755 -5.296,-6.981 -19.498,-15.165 -30.09,-15.406 z"
         inkscape:connector-curvature="0"
         style="fill-opacity:0;stroke:#736160;stroke-width:2.5" /></g><path
       id="path5276"
       d="m 321.146,487.454 c 1.002,-3.333 1.53,-5.28 2.733,-8.529 0.585,-1.577 0.833,-1.664 1.475,-2.828 0.947,-1.718 1.503,-3.002 2.225,-4.913 3.426,-9.059 5.499,-18.847 5.522,-28.55 0.012,-5.288 -0.516,-10.699 -2.615,-15.608 -1.513,-3.538 -3.905,-6.355 -6.37,-9.261 -0.918,-1.082 -1.818,-2.182 -2.81,-3.196 -4.739,-4.841 -10.441,-8.729 -15.986,-12.571 1.357,-0.233 2.716,-0.46 4.079,-0.652 10.592,0.241 24.794,8.425 30.09,15.406 5.724,8.494 8.32,20.463 8.34,30.592 0.008,4.087 -0.173,4.81 -0.637,8.163 -2.407,13.962 -18.054,28.645 -22.868,30.571 l -1.644,0.704 z"
       inkscape:connector-curvature="0"
       style="fill:#ffbe92" /><path
       id="path5278"
       d="m 314.232,410.272 c 23.762,9.891 22.894,45.05 11.795,63.549"
       inkscape:connector-curvature="0"
       style="fill-opacity:0;stroke:#736160;stroke-width:1" /><path
       id="path5280"
       d="m 260.328,446.348 -3.526,-0.178 c 0.15,-2.89 0.127,-4.542 0.723,-7.409 2.194,-10.556 7.613,-20.017 16.375,-26.477 5.018,-3.7 10.863,-5.439 16.795,-7.049 2.18,1.41 1.251,0.607 2.847,2.338 5.51,7.132 -0.021,20.637 -12.353,30.164 -3.607,2.767 -7.573,5.082 -11.847,6.663 -1.511,0.559 -3.09,0.907 -4.635,1.36 z"
       inkscape:connector-curvature="0"
       style="fill:#ffe7ed" /><path
       id="path5282"
       d="m 309.899,401.846 c 0,0 -15.887,2.166 -28.404,6.981 -12.517,4.814 -26.72,21.905 -23.831,44.291 2.888,22.387 16.369,43.57 39.237,40.2 22.868,-3.37 23.108,-4.814 27.923,-6.74 4.814,-1.926 20.46,-16.609 22.868,-30.571 2.407,-13.961 -2.408,-31.775 -7.703,-38.755 -5.296,-6.981 -19.498,-15.165 -30.09,-15.406 z"
       inkscape:connector-curvature="0"
       style="fill-opacity:0;stroke:#736160;stroke-width:2.5" /><g
       id="g5284"><path
         id="path5286"
         d="m 281.509,472.575 c -4.145,0.591 -8.593,-6.559 -9.934,-15.97 -1.34,-9.41 0.934,-17.517 5.08,-18.108 4.145,-0.591 8.593,6.559 9.934,15.97 1.34,9.41 -0.934,17.517 -5.08,18.108 z"
         inkscape:connector-curvature="0"
         style="fill:#736160" /><path
         id="path5288"
         d="m 307.297,468.901 c -4.145,0.591 -8.593,-6.559 -9.934,-15.97 -1.34,-9.41 0.934,-17.517 5.08,-18.108 4.145,-0.591 8.593,6.559 9.934,15.97 1.34,9.41 -0.934,17.517 -5.08,18.108 z"
         inkscape:connector-curvature="0"
         style="fill:#736160" /></g></g><g
     id="Glasses"
     transform="matrix(1.7912469,0,0,1.7912469,348.47789,-201.16967)"><g
       id="g5291"><path
         id="path5293"
         d="m 272.967,413.806 -3.469,-3.601 c 6.521,-6.239 14.774,-10.542 23.733,-11.881 2.888,-0.431 3.721,-0.4 6.219,-0.462 7.961,0 15.623,2.243 22.382,6.44 l -2.638,4.248 c -5.977,-3.712 -12.728,-5.688 -19.744,-5.688 -6.718,0.042 -13.33,1.863 -19.101,5.296 -2.82,1.677 -3.433,2.316 -5.992,4.369 z"
         inkscape:connector-curvature="0"
         style="fill:#5c5c5c" /><path
         id="path5295"
         d="m 272.967,413.806 -2.091,-2.17 c 3.627,-3.245 7.886,-5.889 12.389,-7.739 2.074,-0.852 4.242,-1.463 6.402,-2.064 1.087,-0.302 2.216,-0.426 3.325,-0.639 2.887,-0.431 3.721,-0.4 6.219,-0.462 7.491,0.006 14.765,2.058 21.245,5.786 l -1.262,2.032 c -5.977,-3.712 -12.728,-5.688 -19.744,-5.688 -6.718,0.042 -13.33,1.863 -19.102,5.296 -2.82,1.677 -3.432,2.316 -5.991,4.369 z"
         inkscape:connector-curvature="0"
         style="fill:#373737" /></g><path
       id="path5297"
       d="m 246.916,436.073 c -14.767,0 -26.738,-11.971 -26.738,-26.738 0,-14.767 11.971,-26.738 26.738,-26.738 14.767,0 26.738,11.971 26.738,26.738 0,14.767 -11.971,26.738 -26.738,26.738 z m 0,-5.159 c 11.918,0 21.579,-9.661 21.579,-21.579 0,-11.918 -9.661,-21.579 -21.579,-21.579 -11.918,0 -21.579,9.661 -21.579,21.579 0,11.918 9.661,21.579 21.579,21.579 z"
       inkscape:connector-curvature="0"
       style="fill:#5c5c5c" /><path
       id="path5299"
       d="m 268.7,408.371 c -0.308,-7.405 -4.734,-14.285 -11.234,-17.805 -3.548,-1.92 -6.36,-2.406 -10.286,-2.604 -2.609,0.132 -3.485,0.065 -6.417,0.97 -8.524,2.63 -14.655,10.55 -15.103,19.438 -0.528,-8.217 3.999,-16.228 11.234,-20.145 2.868,-1.553 4.87,-2.008 8.079,-2.493 0.983,-0.149 3.431,-0.149 4.413,0 1.416,0.214 2.842,0.436 4.211,0.859 5.326,1.643 9.906,5.425 12.558,10.323 1.92,3.548 2.406,6.359 2.604,10.286 z"
       inkscape:connector-curvature="0"
       style="fill:#373737" /><path
       id="path5301"
       d="m 343.495,425.773 c -14.767,0 -26.738,-11.971 -26.738,-26.738 0,-14.767 11.971,-26.738 26.738,-26.738 14.767,0 26.738,11.971 26.738,26.738 0,14.767 -11.971,26.738 -26.738,26.738 z m 0,-5.159 c 11.918,0 21.579,-9.661 21.579,-21.579 0,-11.918 -9.661,-21.579 -21.579,-21.579 -11.918,0 -21.579,9.661 -21.579,21.579 0,11.918 9.661,21.579 21.579,21.579 z"
       inkscape:connector-curvature="0"
       style="fill:#5c5c5c" /><path
       id="path5303"
       d="m 365.279,398.071 c -0.308,-7.405 -4.734,-14.285 -11.234,-17.805 -3.548,-1.92 -6.36,-2.406 -10.286,-2.604 -2.609,0.132 -3.485,0.065 -6.417,0.97 -8.524,2.63 -14.655,10.55 -15.104,19.438 -0.527,-8.217 3.999,-16.228 11.235,-20.145 2.868,-1.553 4.87,-2.008 8.079,-2.493 0.983,-0.149 3.431,-0.149 4.413,0 1.417,0.214 2.842,0.436 4.211,0.859 5.326,1.643 9.906,5.425 12.558,10.323 1.92,3.548 2.406,6.359 2.604,10.286 z"
       inkscape:connector-curvature="0"
       style="fill:#373737" /><path
       id="path5305"
       d="m 230.349,388.778 -0.094,-0.31 c 2.977,-2.188 5.888,-4.093 9.589,-4.848 l 0.052,0.064 c 0.711,1.332 -0.85,3.552 -3.487,4.959 -2.636,1.406 -5.349,1.467 -6.06,0.135 z"
       inkscape:connector-curvature="0"
       style="fill:#c9c9c9" /><path
       id="path5307"
       d="m 321.445,387.787 c -1.705,-0.002 -1.084,0.243 -1.988,-0.249 1.389,-3.678 4.195,-6.538 7.03,-9.135 0.374,-0.343 0.841,-0.568 1.261,-0.852 0.115,0.143 0.289,0.255 0.346,0.429 0.424,1.322 0.352,2.081 -0.169,3.429 -0.56,1.447 -1.604,3.074 -2.796,4.124 -0.596,0.525 -1.249,0.981 -1.873,1.472 z"
       inkscape:connector-curvature="0"
       style="fill:#c9c9c9" /></g><g
     id="Face outline"
     transform="matrix(1.7912469,0,0,1.7912469,348.47789,-201.16967)"><path
       id="path5310"
       d="m 353.052,288.39 c -0.708,-0.106 -1.424,-0.159 -2.137,-0.238 m -13.567,-1.158 11.7,0.951 c -2.885,-0.321 -1.126,-0.141 -5.977,-0.513 -1.214,-0.093 -2.428,-0.182 -3.643,-0.273 z M 205.279,449.59 c -2.307,-7.434 -3.264,-9.894 -4.717,-18.835 -4.767,-29.339 2.944,-60.14 20.356,-84.15 l -1.179,0.992 c 0,0 -1.824,-16.78 -2.736,-20.975 -0.912,-4.195 -5.686,6.943 -5.686,6.943 0,0 -0.15,6.919 -1.427,15.492 -1.277,8.572 -3.466,9.302 -6.931,13.314 -3.466,4.013 -6.566,14.957 -6.566,14.957 0,0 -4.195,-7.843 -4.195,-14.227 0,-6.384 1.094,-21.887 2.553,-30.642 1.459,-8.755 6.749,-26.813 14.592,-30.643 7.843,-3.83 15.868,0.365 25.17,5.29 6.312,3.154 13.309,4.616 20.238,5.681 16.954,-11.914 36.216,-20.557 56.695,-24.096 3.778,-0.652 7.616,-0.884 11.424,-1.326 7.228,-3.944 14.672,-8.198 19.85,-14.754 6.403,-9.284 5.762,-19.529 25.29,-16.968 19.528,2.562 33.294,0.961 38.416,8.324 5.122,7.363 14.406,22.409 10.884,40.657 -1.365,7.686 -0.858,4.613 -1.596,9.205 22.016,15.185 38.528,36.808 47.501,61.927 22.917,67.166 -30.597,132.041 -96.718,154.602 -66.121,22.56 -138.301,-13.601 -161.218,-80.768 z m 119.919,-162.491 -0.833,0.094 12.983,-0.199 c -3.499,0.046 -1.549,0.026 -5.852,0.053 -1.687,0.005 -3.374,-0.031 -5.061,-0.04 z"
       inkscape:connector-curvature="0"
       style="fill-opacity:0;stroke:#736160;stroke-width:2" /></g><g
     display="none"
     id="Draft"
     style="display:none"><path
       id="path5313"
       d="m 284.085,497.475 c -43.671,7.764 -61.771,47.921 -61.771,88.445 0,68.795 114.53,130.394 176.889,110.907 18.436,-5.761 39.475,-26.659 49.136,-42.117 40.579,-64.926 -0.191,-158.703 -71.598,-182.505 -37.448,-12.483 -76.911,1.877 -109.503,19.654"
       inkscape:connector-curvature="0"
       style="fill-opacity:0;stroke:#000000;stroke-width:1" /><path
       id="path5315"
       d="m 271.45,668.749 c -16.688,-17.219 -33.564,6.804 -42.116,21.058 -29.234,48.723 25.119,62.586 47.732,51.944 41.553,-19.554 50.446,-99.676 7.019,-99.676"
       inkscape:connector-curvature="0"
       style="fill-opacity:0;stroke:#000000;stroke-width:1" /><path
       id="path5317"
       d="m 369.722,665.941 c -5.148,1.872 -10.712,2.856 -15.443,5.616 -19.724,11.505 -14.417,77.699 32.289,87.041 2.6,0.52 11.218,2.721 14.039,1.404 43.376,-20.242 35.104,-76.559 -2.807,-96.868 -16.182,-8.669 -32.451,-17.441 -50.54,-21.058"
       inkscape:connector-curvature="0"
       style="fill-opacity:0;stroke:#000000;stroke-width:1" /><path
       id="path5319"
       d="m 449.743,629.441 c -8.1,15.363 13.605,14.609 23.866,14.039 16.78,-0.932 43.874,-61.269 22.463,-67.386 -23.337,-6.668 -24.881,37.025 -7.02,43.52 26.182,9.521 65.225,-14.365 47.732,-43.52 -5.879,-9.798 -25.688,-8.841 -9.827,7.019"
       inkscape:connector-curvature="0"
       style="fill-opacity:0;stroke:#000000;stroke-width:1" /><path
       id="path5321"
       d="m 289.701,562.054 c 1.346,10.093 28.326,106.696 22.462,106.696"
       inkscape:connector-curvature="0"
       style="fill-opacity:0;stroke:#000000;stroke-width:1" /><path
       id="path5323"
       d="m 281.277,571.882 c 2.256,-21.692 84.37,-43.384 96.868,-30.886 4.296,4.296 20.975,73.078 22.462,84.233 0.039,0.29 8.156,24.134 5.616,26.674 -15.377,15.376 -92.369,17.675 -98.272,29.482"
       inkscape:connector-curvature="0"
       style="fill-opacity:0;stroke:#000000;stroke-width:1" /><path
       id="path5325"
       d="m 420.262,543.804 c -24.699,14.697 -81.426,22.656 -81.426,58.963 0,3.294 -0.77,8.332 1.404,11.231 14.708,19.61 94.134,-18.323 103.888,-28.078"
       inkscape:connector-curvature="0"
       style="fill-opacity:0;stroke:#000000;stroke-width:1" /><path
       id="path5327"
       d="m 191.429,501.687 c 12.216,1.912 22.984,9.778 30.885,19.655 42.577,53.221 -7.734,86.731 -40.712,63.175 -17.41,-12.436 -27.315,-32.809 -33.694,-51.944 -0.325,-0.977 -8.441,-18.245 -8.423,-18.251 4.741,-1.58 17.604,9.07 22.462,4.212 8.131,-8.131 2.042,-33.374 40.713,-14.039"
       inkscape:connector-curvature="0"
       style="fill-opacity:0;stroke:#000000;stroke-width:1" /><path
       id="path5329"
       d="m 322.239,283.214 c 7.443,-3.586 15.375,-6.484 20.813,-13.009 4.345,-5.214 8.639,-11.421 13.875,-15.61 4.293,-3.434 16.267,0.413 20.814,0.868 43.939,4.394 37.762,34.779 33.821,70.244 -0.533,4.802 -2.946,17.23 -10.407,14.743 -10.606,-3.535 4.394,-44.835 -29.485,-70.245"
       inkscape:connector-curvature="0"
       style="fill-opacity:0;stroke:#000000;stroke-width:1" /><path
       id="path5331"
       d="m 369.936,279.744 c 4.893,19.219 17.538,24.99 32.087,34.689"
       inkscape:connector-curvature="0"
       style="fill-opacity:0;stroke:#000000;stroke-width:1" /><path
       id="path5333"
       d="m 252.861,312.699 c -10.724,0.119 -36.137,-18.962 -46.83,-10.407 -11.983,9.586 -19.012,62.541 -10.407,75.448"
       inkscape:connector-curvature="0"
       style="fill-opacity:0;stroke:#000000;stroke-width:1" /><path
       id="path5335"
       d="m 318.769,487.01 c 22.73,-2.453 36.51,-22.678 48.564,-40.759"
       inkscape:connector-curvature="0"
       style="fill-opacity:0;stroke:#000000;stroke-width:1" /><path
       id="path5337"
       d="m 363.865,441.048 c 31.587,12.543 26.145,84.152 -15.61,73.713 -15.893,-3.973 -29.691,-19.946 -46.83,-19.946"
       inkscape:connector-curvature="0"
       style="fill-opacity:0;stroke:#000000;stroke-width:1" /><path
       id="path5339"
       d="m 328.309,526.036 c 3.403,-17.219 41.636,-13.009 56.369,-13.009"
       inkscape:connector-curvature="0"
       style="fill-opacity:0;stroke:#000000;stroke-width:1" /><path
       id="path5341"
       d="m 246.79,313.566 c -13.198,-4.751 -36.881,-23.335 -43.361,-1.734 -1.874,6.246 -3.957,12.304 -2.602,19.079 1.848,9.237 12.392,10.52 8.673,21.68 -4.719,14.154 -30.04,16.55 -23.415,36.423"
       inkscape:connector-curvature="0"
       style="fill-opacity:0;stroke:#000000;stroke-width:1" /><path
       id="path5343"
       d="m 209.5,314.433 c 10.528,12.443 10.407,32.46 10.407,48.564"
       inkscape:connector-curvature="0"
       style="fill-opacity:0;stroke:#000000;stroke-width:1" /><path
       id="path5345"
       d="m 413.297,424.571 c -6.852,0.325 -12.908,-2.894 -19.079,1.734 -16.076,12.057 10.74,50.055 32.087,25.149 13.551,-15.808 -17.972,-46.322 -28.618,-30.352"
       inkscape:connector-curvature="0"
       style="fill-opacity:0;stroke:#000000;stroke-width:1" /><path
       id="path5347"
       d="m 236.384,447.985 c -7.695,-0.703 -15.521,7.958 -16.478,15.61 -1.128,9.027 10.814,29.079 21.681,18.212 15.621,-15.621 -2.197,-41.395 -24.282,-30.353"
       inkscape:connector-curvature="0"
       style="fill-opacity:0;stroke:#000000;stroke-width:1" /></g></g></svg>